<svg width="89" height="44" viewBox="0 0 89 44" fill="none" xmlns="http://www.w3.org/2000/svg">
<g clip-path="url(#clip0_2_3687)" filter="url(#filter0_d_2_3687)">
<path d="M67.4216 36.0615C75.3867 36.0615 81.8433 29.3318 81.8433 21.0315C81.8433 12.729 75.3867 6 67.4216 6C59.4566 6 53 12.7298 53 21.0308C53 29.3318 59.4574 36.0615 67.4216 36.0615Z" fill="#FFCD00"/>
<path d="M57.8438 5.92725C59.4141 5.92725 60.6868 4.6005 60.6868 2.964C60.6868 1.32675 59.4141 0 57.8438 0C56.2734 0 55 1.3275 55 2.964C55 4.6005 56.2734 5.92725 57.8438 5.92725Z" fill="#FFF1B8"/>
<path d="M69.2783 24.3732C68.8266 24.785 68.2516 24.9957 67.5635 24.9957C66.6601 24.9957 65.961 24.6552 65.4757 23.9615C64.9904 23.279 64.7533 22.244 64.7533 20.8565V20.3982C64.7533 19.022 65.0014 17.9982 65.4866 17.3285C65.9719 16.658 66.6601 16.3167 67.5518 16.3167C68.2516 16.3167 68.8266 16.5522 69.2783 17.0225C69.73 17.4927 69.9665 18.1047 70.0008 18.8337H72.6074C72.5621 17.387 72.0878 16.223 71.1625 15.329C70.2372 14.447 69.0528 14 67.5854 14C65.8588 14 64.5052 14.6 63.5011 15.764C62.4962 16.9287 62 18.4925 62 20.4447V20.7387C62 22.7855 62.5079 24.3845 63.512 25.5492C64.5161 26.7132 65.8814 27.2892 67.597 27.2892C68.4592 27.2961 69.3105 27.0906 70.0796 26.69C70.8465 26.2902 71.4449 25.7487 71.8966 25.055C72.3277 24.3907 72.5735 23.6177 72.6074 22.82H70.0008C69.992 23.1162 69.9233 23.4072 69.7989 23.6746C69.6745 23.9419 69.4972 24.1796 69.2783 24.3725V24.3732ZM62.5867 29.642H72.4257V31.6887H62.5867V29.6412V29.642Z" fill="#FEFEFF"/>
<path d="M33.7649 27.1935H31V9H33.7649V27.1935Z" fill="#0B1124"/>
<path fill-rule="evenodd" clip-rule="evenodd" d="M4 10V27.241H10.0487C11.8993 27.241 13.3325 26.806 14.3249 25.936C15.3181 25.066 15.8151 23.8307 15.8151 22.2077C15.8151 21.2312 15.5669 20.3852 15.0817 19.6907C14.5855 18.997 13.8966 18.5147 13.0049 18.268C13.7952 17.9155 14.3928 17.4325 14.7993 16.798C15.2057 16.174 15.4086 15.457 15.4086 14.6687C15.4086 13.1162 14.9233 11.9522 13.9418 11.176C12.9596 10.3885 11.5381 10 9.66489 10H4ZM9.69919 17.2562H6.87659V12.4112H9.67511C10.6573 12.4112 11.39 12.5987 11.8534 12.9752C12.316 13.3517 12.5532 13.975 12.5532 14.8217C12.5532 15.598 12.3051 16.198 11.7972 16.6217C11.2893 17.0447 10.5895 17.2562 9.69773 17.2562H9.69919ZM6.87659 24.8185V19.456H10.2976C12.0577 19.5025 12.9377 20.4085 12.9377 22.1957C12.9377 23.0192 12.6896 23.6657 12.1817 24.1247C11.6738 24.583 10.9748 24.8185 10.0721 24.8185H6.87732H6.87659ZM25.4402 26.041C25.5307 26.5945 25.6321 26.9942 25.7562 27.241H28.5663V27.0415C28.2613 26.347 28.1037 25.4297 28.1037 24.2777V18.5027C28.0811 17.1385 27.6411 16.0802 26.7829 15.3272C25.9255 14.575 24.7863 14.1985 23.3415 14.1985C22.3936 14.1985 21.5361 14.3635 20.7685 14.716C19.9898 15.0572 19.3922 15.5395 18.9405 16.1507C18.5005 16.762 18.275 17.4205 18.275 18.1262H21.0392C21.0392 17.6207 21.2311 17.209 21.6376 16.8797C22.044 16.5505 22.5519 16.3862 23.1839 16.3862C23.9063 16.3862 24.4478 16.5857 24.8082 16.9862C25.1585 17.374 25.3388 17.9147 25.3388 18.5732V19.4087H23.6458C21.8404 19.4087 20.4415 19.7732 19.471 20.5022C18.5005 21.2312 18.0152 22.2782 18.0152 23.6425C18.0152 24.724 18.41 25.642 19.1886 26.371C19.9672 27.112 20.9837 27.4765 22.2133 27.4765C23.4882 27.4765 24.5601 26.9942 25.4402 26.0417V26.041ZM24.2558 24.76C23.7815 25.03 23.2627 25.171 22.7212 25.171C22.1338 25.171 21.6602 25.006 21.299 24.6775C20.9487 24.3475 20.7685 23.9125 20.7685 23.3605C20.7685 22.678 21.0282 22.1605 21.5471 21.784C22.055 21.4195 22.8226 21.2312 23.8494 21.2312H25.3388V23.6425C25.0972 24.1198 24.7193 24.5098 24.2558 24.76ZM43.9695 26.041C44.06 26.5945 44.1614 26.9942 44.2855 27.241H47.1066V27.0415C46.8023 26.347 46.6439 25.4297 46.6439 24.2777V18.5027C46.622 17.1385 46.1813 16.0802 45.3231 15.3272C44.4664 14.575 43.3266 14.1985 41.8817 14.1985C40.9338 14.1985 40.0764 14.3635 39.3094 14.716C38.5308 15.0572 37.9324 15.5395 37.4815 16.1507C37.0407 16.762 36.8152 17.4205 36.8152 18.1262H39.5685C39.5685 17.6207 39.7604 17.209 40.1669 16.8797C40.5733 16.5505 41.0805 16.3862 41.7124 16.3862C42.4349 16.3862 42.9763 16.5857 43.3375 16.9862C43.6878 17.374 43.868 17.9147 43.868 18.5732V19.4087H42.1751C40.3697 19.4087 38.9708 19.7732 38.0003 20.5022C37.0298 21.2312 36.5445 22.2782 36.5445 23.6425C36.5445 24.724 36.9393 25.642 37.7179 26.371C38.4965 27.112 39.5123 27.4765 40.7419 27.4765C42.0175 27.4765 43.0894 26.9942 43.9695 26.0417V26.041ZM42.7961 24.76C42.3218 25.03 41.8036 25.171 41.2615 25.171C40.6631 25.171 40.1888 25.006 39.8509 24.6775C39.5006 24.3475 39.3204 23.9125 39.3204 23.3605C39.3204 22.678 39.5685 22.1605 40.088 21.784C40.5959 21.4195 41.3629 21.2312 42.3896 21.2312H43.8797V23.6425C43.638 24.12 43.2598 24.5099 42.7961 24.76Z" fill="#0B1124"/>
<path d="M51.6066 14.2355L51.6861 15.7175C52.5998 14.5768 53.7848 14 55.2625 14C57.8239 14 59.1228 15.5293 59.1673 18.587V27.0545H56.4141V18.752C56.4141 17.9398 56.2448 17.3405 55.9062 16.94C55.5676 16.5523 55.0144 16.352 54.2584 16.352C53.1419 16.352 52.3174 16.8815 51.7649 17.9285V27.0433H49V14.2355H51.6066Z" fill="#0B1124"/>
<path fill-rule="evenodd" clip-rule="evenodd" d="M75.6361 25.5613C76.7197 26.7013 78.1412 27.278 79.8904 27.278C80.9178 27.278 81.8315 27.0665 82.6553 26.6668C83.4559 26.2608 84.1373 25.6438 84.63 24.8788L83.1406 23.3968C82.3393 24.467 81.3126 24.9965 80.0487 24.9965C79.1461 24.9965 78.401 24.6785 77.8026 24.0673C77.205 23.456 76.8664 22.6205 76.7876 21.5623H84.8219V20.3975C84.8219 18.3635 84.3702 16.787 83.4566 15.6703C82.5422 14.5527 81.2448 14 79.5744 14C78.5141 14 77.5662 14.27 76.7088 14.8348C75.8506 15.3995 75.1851 16.1758 74.7108 17.1875C74.2364 18.1985 74 19.34 74 20.621V20.9735C74 22.8793 74.5531 24.4085 75.6361 25.5613ZM77.7238 17.1283C78.1981 16.5875 78.8075 16.3048 79.5635 16.3048C80.3304 16.3048 80.9288 16.5403 81.3579 17.0345C81.7862 17.528 82.0343 18.257 82.0912 19.2215V19.4338H76.8328C76.9569 18.4453 77.2612 17.681 77.7238 17.1283Z" fill="#0B1124"/>
</g>
<defs>
<filter id="filter0_d_2_3687" x="0" y="0" width="89" height="44" filterUnits="userSpaceOnUse" color-interpolation-filters="sRGB">
<feFlood flood-opacity="0" result="BackgroundImageFix"/>
<feColorMatrix in="SourceAlpha" type="matrix" values="0 0 0 0 0 0 0 0 0 0 0 0 0 0 0 0 0 0 127 0" result="hardAlpha"/>
<feOffset dy="4"/>
<feGaussianBlur stdDeviation="2"/>
<feComposite in2="hardAlpha" operator="out"/>
<feColorMatrix type="matrix" values="0 0 0 0 0 0 0 0 0 0 0 0 0 0 0 0 0 0 0.25 0"/>
<feBlend mode="normal" in2="BackgroundImageFix" result="effect1_dropShadow_2_3687"/>
<feBlend mode="normal" in="SourceGraphic" in2="effect1_dropShadow_2_3687" result="shape"/>
</filter>
<clipPath id="clip0_2_3687">
<rect width="81" height="36" fill="white" transform="translate(4)"/>
</clipPath>
</defs>
</svg>
