<svg width="60" height="60" viewBox="0 0 60 60" fill="none" xmlns="http://www.w3.org/2000/svg">
<path d="M0 47.4961V52.5C0 56.6367 10.0781 60 22.5 60C34.9219 60 45 56.6367 45 52.5V47.4961C40.1602 50.9062 31.3125 52.5 22.5 52.5C13.6875 52.5 4.83984 50.9062 0 47.4961ZM37.5 15C49.9219 15 60 11.6367 60 7.5C60 3.36328 49.9219 0 37.5 0C25.0781 0 15 3.36328 15 7.5C15 11.6367 25.0781 15 37.5 15ZM0 35.2031V41.25C0 45.3867 10.0781 48.75 22.5 48.75C34.9219 48.75 45 45.3867 45 41.25V35.2031C40.1602 39.1875 31.3008 41.25 22.5 41.25C13.6992 41.25 4.83984 39.1875 0 35.2031ZM48.75 36.4922C55.4648 35.1914 60 32.7773 60 30V24.9961C57.2812 26.918 53.2852 28.2305 48.75 29.0391V36.4922ZM22.5 18.75C10.0781 18.75 0 22.9453 0 28.125C0 33.3047 10.0781 37.5 22.5 37.5C34.9219 37.5 45 33.3047 45 28.125C45 22.9453 34.9219 18.75 22.5 18.75ZM48.1992 25.3477C55.2305 24.082 60 21.5977 60 18.75V13.7461C55.8398 16.6875 48.6914 18.2695 41.168 18.6445C44.625 20.3203 47.168 22.5703 48.1992 25.3477Z" fill="#FFB890"/>
</svg>
