<svg width="75" height="58" viewBox="0 0 75 58" fill="none" xmlns="http://www.w3.org/2000/svg">
<g clip-path="url(#clip0_2_3674)">
<path d="M73.6386 57.1185V57.2676H73.7785C73.8048 57.268 73.8307 57.2615 73.8535 57.2486C73.8626 57.2422 73.87 57.2336 73.8749 57.2236C73.8798 57.2137 73.8821 57.2027 73.8816 57.1916C73.8821 57.1807 73.8798 57.1699 73.8748 57.1602C73.8699 57.1504 73.8626 57.1421 73.8535 57.136C73.8309 57.1225 73.8048 57.1159 73.7785 57.117H73.6386V57.1185ZM73.78 57.013C73.84 57.0094 73.8993 57.0265 73.948 57.0615C73.9675 57.0774 73.983 57.0976 73.9932 57.1205C74.0035 57.1434 74.0081 57.1684 74.0069 57.1934C74.0078 57.215 74.004 57.2365 73.9959 57.2565C73.9877 57.2765 73.9754 57.2945 73.9596 57.3094C73.9221 57.3418 73.875 57.3613 73.8254 57.3649L74.0129 57.5774H73.8685L73.696 57.3664H73.6401V57.5774H73.5194V57.0134H73.7819L73.78 57.013ZM73.7425 57.7719C73.8058 57.7725 73.8686 57.7598 73.9266 57.7347C73.9826 57.7107 74.0335 57.6764 74.0766 57.6337C74.1198 57.5909 74.1544 57.5403 74.1783 57.4846C74.2275 57.3664 74.2275 57.2337 74.1783 57.1155C74.154 57.06 74.1195 57.0094 74.0766 56.9664C74.0335 56.9237 73.9826 56.8894 73.9266 56.8654C73.8682 56.8416 73.8056 56.8297 73.7425 56.8304C73.6783 56.8298 73.6146 56.8417 73.555 56.8654C73.4978 56.8889 73.4457 56.9232 73.4016 56.9664C73.3353 57.0341 73.2904 57.1196 73.2726 57.2124C73.2548 57.3052 73.2649 57.4011 73.3015 57.4883C73.3243 57.5442 73.3584 57.595 73.4016 57.6374C73.4457 57.6806 73.4978 57.7149 73.555 57.7384C73.6143 57.7635 73.6781 57.7762 73.7425 57.7757V57.7719ZM73.7425 56.6947C73.9073 56.6945 74.0656 56.7588 74.1831 56.8736C74.2398 56.9287 74.2849 56.9945 74.3159 57.0671C74.3479 57.1416 74.3645 57.2218 74.3645 57.3028C74.3645 57.3839 74.3479 57.4641 74.3159 57.5386C74.2842 57.6108 74.2392 57.6764 74.1831 57.7321C74.1256 57.7869 74.0587 57.8311 73.9855 57.8625C73.9087 57.895 73.826 57.9115 73.7425 57.911C73.6581 57.9116 73.5744 57.8951 73.4965 57.8625C73.4225 57.8318 73.355 57.7876 73.2974 57.7321C73.2413 57.6744 73.1969 57.6065 73.1665 57.5323C73.1345 57.4577 73.1179 57.3775 73.1179 57.2965C73.1179 57.2155 73.1345 57.1353 73.1665 57.0607C73.1975 56.9882 73.2426 56.9224 73.2993 56.8673C73.356 56.8108 73.4238 56.7664 73.4984 56.7368C73.5762 56.7042 73.6599 56.6878 73.7444 56.6884L73.7425 56.6947ZM16.3225 54.5167C16.3225 53.4413 17.0313 52.5579 18.1896 52.5579C19.2966 52.5579 20.0436 53.4033 20.0436 54.5167C20.0436 55.6301 19.2966 56.4755 18.1896 56.4755C17.0313 56.4755 16.3225 55.5921 16.3225 54.5167ZM21.3055 54.5167V51.4564H19.9671V52.2019C19.5426 51.651 18.8988 51.3055 18.0231 51.3055C16.2981 51.3055 14.9444 52.6503 14.9444 54.5182C14.9444 56.3861 16.2974 57.7309 18.0231 57.7309C18.8984 57.7309 19.5426 57.385 19.9671 56.8345V57.5774H21.304V54.5167H21.3055ZM66.5275 54.5167C66.5275 53.4413 67.2363 52.5579 68.395 52.5579C69.5031 52.5579 70.249 53.4033 70.249 54.5167C70.249 55.6301 69.5031 56.4755 68.395 56.4755C67.2366 56.4755 66.5275 55.5921 66.5275 54.5167ZM71.512 54.5167V49H70.1725V52.2019C69.748 51.651 69.1041 51.3055 68.2285 51.3055C66.5035 51.3055 65.1498 52.6503 65.1498 54.5182C65.1498 56.3861 66.5028 57.7309 68.2285 57.7309C69.1041 57.7309 69.748 57.385 70.1725 56.8345V57.5774H71.512V54.5167ZM37.9165 52.4949C38.779 52.4949 39.3329 53.0324 39.4743 53.9788H36.2808C36.4236 53.0954 36.9633 52.4949 37.9169 52.4949H37.9165ZM37.9435 51.3021C36.1398 51.3021 34.8779 52.6067 34.8779 54.5148C34.8779 56.4602 36.1904 57.7276 38.0331 57.7276C38.9601 57.7276 39.8091 57.4976 40.5561 56.8703L39.9003 55.8843C39.3843 56.2944 38.7273 56.5243 38.1096 56.5243C37.2471 56.5243 36.4619 56.1274 36.2688 55.0259H40.8389C40.852 54.8604 40.8655 54.6934 40.8655 54.5145C40.852 52.6071 39.6655 51.3017 37.9428 51.3017L37.9435 51.3021ZM54.1015 54.5145C54.1015 53.4391 54.8103 52.5557 55.9686 52.5557C57.0756 52.5557 57.8226 53.4011 57.8226 54.5145C57.8226 55.6279 57.0756 56.4733 55.9686 56.4733C54.8103 56.4733 54.1011 55.5899 54.1011 54.5145H54.1015ZM59.0841 54.5145V51.4564H57.7465V52.2019C57.3205 51.651 56.6781 51.3055 55.8025 51.3055C54.0775 51.3055 52.7238 52.6503 52.7238 54.5182C52.7238 56.3861 54.0768 57.7309 55.8025 57.7309C56.6781 57.7309 57.3205 57.385 57.7465 56.8345V57.5774H59.0845V54.5167L59.0841 54.5145ZM46.5434 54.5145C46.5434 56.3704 47.8431 57.7272 49.8269 57.7272C50.7539 57.7272 51.3715 57.5222 52.0394 56.9977L51.3966 55.9224C50.8941 56.2813 50.3665 56.4733 49.7841 56.4733C48.7158 56.4602 47.9301 55.6924 47.9301 54.5145C47.9301 53.3366 48.7158 52.5691 49.7841 52.5557C50.365 52.5557 50.8926 52.7476 51.3966 53.1066L52.0394 52.0312C51.3704 51.5068 50.7528 51.3017 49.8269 51.3017C47.8431 51.3017 46.5434 52.6582 46.5434 54.5145ZM63.7971 51.3017C63.025 51.3017 62.5221 51.6607 62.1745 52.1982V51.4564H60.8481V57.574H62.188V54.1447C62.188 53.1323 62.6256 52.5698 63.5005 52.5698C63.787 52.5657 64.0715 52.618 64.3375 52.7238L64.75 51.4698C64.4538 51.3539 64.0675 51.3029 63.7964 51.3029L63.7971 51.3017ZM27.9224 51.9429C27.2785 51.5209 26.3913 51.3029 25.4125 51.3029C23.8533 51.3029 22.8494 52.0457 22.8494 53.2613C22.8494 54.2588 23.5968 54.8742 24.973 55.0661L25.6053 55.1556C26.3391 55.2581 26.6856 55.4501 26.6856 55.7956C26.6856 56.2686 26.1981 56.5385 25.2828 56.5385C24.3558 56.5385 23.6868 56.244 23.2356 55.8985L22.6068 56.9359C23.3406 57.4734 24.2676 57.7298 25.2715 57.7298C27.049 57.7298 28.0791 56.8978 28.0791 55.733C28.0791 54.6576 27.2684 54.0951 25.9289 53.9032L25.2981 53.8122C24.7188 53.7377 24.2545 53.6217 24.2545 53.2117C24.2545 52.7644 24.6921 52.4953 25.4264 52.4953C26.212 52.4953 26.9725 52.7898 27.3453 53.0197L27.9246 51.9444L27.9224 51.9429ZM45.1915 51.304C44.4194 51.304 43.9165 51.6629 43.5704 52.2004V51.4564H42.244V57.574H43.5824V54.1447C43.5824 53.1323 44.02 52.5698 44.8949 52.5698C45.1814 52.5657 45.4658 52.618 45.7319 52.7238L46.1444 51.4698C45.8481 51.3539 45.4619 51.3029 45.1908 51.3029L45.1915 51.304ZM33.7705 51.4564H31.582V49.6005H30.229V51.4564H28.9806V52.6723H30.229V55.4631C30.229 56.8826 30.7833 57.728 32.3665 57.728C32.9474 57.728 33.6164 57.549 34.0409 57.2549L33.6543 56.1158C33.2549 56.3458 32.8173 56.4617 32.4693 56.4617C31.8003 56.4617 31.582 56.0517 31.582 55.4378V52.6735H33.7705V51.4564ZM13.7609 57.5755V53.7362C13.7609 52.2903 12.8339 51.3174 11.3395 51.3043C10.5539 51.2913 9.7435 51.5343 9.17613 52.3928C8.75163 51.7144 8.08263 51.3043 7.14213 51.3043C6.48475 51.3043 5.84238 51.4963 5.3395 52.2127V51.4564H4V57.574H5.35V54.182C5.35 53.12 5.9425 52.5557 6.8575 52.5557C7.74625 52.5557 8.19588 53.1316 8.19588 54.1686V57.5733H9.54888V54.1812C9.54888 53.1193 10.1665 52.5549 11.0549 52.5549C11.9688 52.5549 12.4049 53.1308 12.4049 54.1678V57.5725L13.7609 57.5755Z" fill="#231F20"/>
<path d="M73.9534 36.8946V36H73.719L73.4479 36.6139L73.1783 36H72.9431V36.8946H73.1096V36.2207L73.3631 36.8022H73.5356L73.7891 36.2192V36.8946H73.9541H73.9534ZM72.4665 36.8946V36.1532H72.7665V36.0022H72V36.1532H72.3V36.8946H72.465H72.4665Z" fill="#F79410"/>
<path d="M47.2822 41.2314H27V5H47.2826L47.2822 41.2314Z" fill="#FF5F00"/>
<path d="M28.65 23.0416C28.65 15.6921 32.112 9.1451 37.503 4.92594C33.4223 1.72754 28.3751 -0.00833978 23.1784 -0.00070736C10.377 -0.00070736 0 10.3155 0 23.0416C0 35.7677 10.377 46.084 23.1784 46.084C28.3752 46.0917 33.4226 44.3558 37.5034 41.1573C32.1128 36.9389 28.65 30.3915 28.65 23.0416Z" fill="#EB001B"/>
<path d="M75.5053 23.0424C75.5053 35.7684 65.1283 46.0847 52.3269 46.0847C47.1295 46.0923 42.0816 44.3564 38 41.158C43.3925 36.9389 46.8545 30.3922 46.8545 23.0424C46.8545 15.6925 43.3925 9.14583 38 4.92667C42.0815 1.72837 47.1293 -0.00747358 52.3265 2.41876e-05C65.1279 2.41876e-05 75.5049 10.3163 75.5049 23.0424" fill="#F79E1B"/>
</g>
<defs>
<clipPath id="clip0_2_3674">
<rect width="75" height="58" fill="white"/>
</clipPath>
</defs>
</svg>
