<svg width="81" height="27" viewBox="0 0 81 27" fill="none" xmlns="http://www.w3.org/2000/svg">
<path d="M35.0243 25.7739H28.4318L32.552 0.452459H39.1452L35.0243 25.7739ZM22.8858 0.452459L16.6008 17.8687L15.8571 14.1183L15.8578 14.1197L13.6395 2.73237C13.6395 2.73237 13.3713 0.452459 10.5122 0.452459H0.12192L0 0.881211C0 0.881211 3.17738 1.54229 6.89594 3.77546L12.6235 25.7746H19.4923L29.9809 0.452459H22.8858ZM74.7392 25.7739H80.7925L75.5147 0.451782H70.2152C67.768 0.451782 67.172 2.33883 67.172 2.33883L57.3398 25.7739H64.212L65.5863 22.0127H73.967L74.7392 25.7739ZM67.4849 16.8168L70.9488 7.34094L72.8975 16.8168H67.4849ZM57.8552 6.54169L58.796 1.10405C58.796 1.10405 55.893 0 52.8667 0C49.5951 0 41.8261 1.42985 41.8261 8.38269C41.8261 14.9244 50.9444 15.0057 50.9444 18.4418C50.9444 21.8779 42.7656 21.2622 40.0664 19.0954L39.0863 24.7809C39.0863 24.7809 42.03 26.2108 46.5275 26.2108C51.0263 26.2108 57.8132 23.8814 57.8132 17.5416C57.8132 10.9579 48.613 10.3449 48.613 7.48251C48.6137 4.61942 55.0341 4.98721 57.8552 6.54169Z" fill="#2566AF"/>
</svg>
