<svg width="153" height="38" viewBox="0 0 153 38" fill="none" xmlns="http://www.w3.org/2000/svg">
<path d="M28.6762 12C28.5909 12 28.5162 11.968 28.4522 11.904C28.3882 11.84 28.3562 11.7653 28.3562 11.68C28.3562 11.6267 28.3616 11.568 28.3722 11.504L32.3402 1.152C32.3829 1.04533 32.4416 0.96 32.5162 0.896C32.5909 0.831999 32.7029 0.799999 32.8522 0.799999H33.9402C34.0896 0.799999 34.2016 0.831999 34.2762 0.896C34.3509 0.96 34.4096 1.04533 34.4522 1.152L38.4042 11.504C38.4256 11.568 38.4362 11.6267 38.4362 11.68C38.4362 11.7653 38.4042 11.84 38.3402 11.904C38.2762 11.968 38.2016 12 38.1162 12H37.3002C37.1722 12 37.0762 11.968 37.0122 11.904C36.9589 11.84 36.9216 11.7813 36.9002 11.728L36.0202 9.456H30.7722L29.8922 11.728C29.8816 11.7813 29.8442 11.84 29.7802 11.904C29.7162 11.968 29.6202 12 29.4922 12H28.6762ZM31.2362 8.08H35.5562L33.3962 2.4L31.2362 8.08ZM43.699 12.16C42.8777 12.16 42.1897 12.0053 41.635 11.696C41.091 11.376 40.675 10.928 40.387 10.352C40.1097 9.76533 39.9603 9.088 39.939 8.32C39.9283 8 39.923 7.68 39.923 7.36C39.923 7.04 39.9283 6.72 39.939 6.4C39.939 5.42933 40.019 4.624 40.179 3.984C40.339 3.33333 40.579 2.80533 40.899 2.4C41.2297 1.984 41.6457 1.648 42.147 1.392C42.6483 1.12533 43.2403 0.896 43.923 0.704C44.6057 0.501333 45.3843 0.287999 46.259 0.0639992C46.355 0.0426661 46.4457 0.0586662 46.531 0.112C46.627 0.165333 46.6803 0.239999 46.691 0.335999L46.819 0.992C46.8403 1.088 46.8243 1.17333 46.771 1.248C46.7283 1.32267 46.659 1.37067 46.563 1.392C45.763 1.59467 45.0643 1.77067 44.467 1.92C43.8697 2.06933 43.3683 2.24533 42.963 2.448C42.5577 2.64 42.2323 2.89067 41.987 3.2C41.7523 3.50933 41.587 3.92 41.491 4.432C41.395 4.944 41.363 5.6 41.395 6.4L41.059 6.256C41.1017 5.85067 41.2617 5.488 41.539 5.168C41.827 4.848 42.1843 4.58667 42.611 4.384C43.0377 4.18133 43.491 4.08 43.971 4.08C44.707 4.08 45.3257 4.23467 45.827 4.544C46.339 4.85333 46.7283 5.27467 46.995 5.808C47.2723 6.34133 47.427 6.95467 47.459 7.648C47.4803 8.01067 47.4803 8.32533 47.459 8.592C47.427 9.28533 47.267 9.904 46.979 10.448C46.691 10.9813 46.275 11.4027 45.731 11.712C45.187 12.0107 44.5097 12.16 43.699 12.16ZM43.699 10.976C44.371 10.976 44.9043 10.768 45.299 10.352C45.6937 9.92533 45.9017 9.31733 45.923 8.528C45.9337 8.42133 45.939 8.29867 45.939 8.16C45.939 8.02133 45.9337 7.87733 45.923 7.728C45.9017 6.91733 45.6937 6.304 45.299 5.888C44.915 5.472 44.4297 5.264 43.843 5.264C43.171 5.264 42.6163 5.472 42.179 5.888C41.7417 6.304 41.507 6.91733 41.475 7.728C41.4643 7.87733 41.459 8.02133 41.459 8.16C41.459 8.29867 41.4643 8.42133 41.475 8.528C41.507 9.31733 41.7203 9.92533 42.115 10.352C42.5097 10.768 43.0377 10.976 43.699 10.976ZM49.2359 13.76C49.1292 13.76 49.0385 13.7227 48.9639 13.648C48.8999 13.584 48.8679 13.4987 48.8679 13.392V11.088C48.8679 10.9813 48.8999 10.896 48.9639 10.832C49.0385 10.7573 49.1292 10.72 49.2359 10.72H49.3159C49.6039 10.7093 49.8492 10.5493 50.0519 10.24C50.2545 9.92 50.4092 9.424 50.5159 8.752C50.6225 8.06933 50.6759 7.184 50.6759 6.096V4.048C50.6759 3.94133 50.7079 3.856 50.7719 3.792C50.8465 3.71733 50.9372 3.68 51.0439 3.68H56.1479C56.2652 3.68 56.3559 3.71733 56.4199 3.792C56.4839 3.856 56.5159 3.94133 56.5159 4.048V10.688H57.2679C57.3852 10.688 57.4759 10.7253 57.5399 10.8C57.6039 10.864 57.6359 10.9493 57.6359 11.056V13.392C57.6359 13.4987 57.6039 13.584 57.5399 13.648C57.4759 13.7227 57.3852 13.76 57.2679 13.76H56.5159C56.4092 13.76 56.3185 13.7227 56.2439 13.648C56.1799 13.584 56.1479 13.4987 56.1479 13.392V12H50.3559V13.392C50.3559 13.4987 50.3185 13.584 50.2439 13.648C50.1799 13.7227 50.0945 13.76 49.9879 13.76H49.2359ZM51.2199 10.72L55.0279 10.688V4.96H52.1319V6.272C52.1319 7.40267 52.0519 8.33067 51.8919 9.056C51.7319 9.77067 51.5079 10.3253 51.2199 10.72ZM59.9336 15.04C59.827 15.04 59.7363 15.0027 59.6616 14.928C59.5976 14.864 59.5656 14.7787 59.5656 14.672V4.048C59.5656 3.94133 59.5976 3.856 59.6616 3.792C59.7363 3.71733 59.827 3.68 59.9336 3.68H60.6696C60.7763 3.68 60.8616 3.71733 60.9256 3.792C61.0003 3.856 61.0376 3.94133 61.0376 4.048V4.752C61.2936 4.4 61.635 4.10667 62.0616 3.872C62.4883 3.63733 63.0216 3.52 63.6616 3.52C64.259 3.52 64.7656 3.62133 65.1816 3.824C65.6083 4.02667 65.955 4.304 66.2216 4.656C66.499 5.008 66.707 5.408 66.8456 5.856C66.9843 6.304 67.0643 6.784 67.0856 7.296C67.0963 7.46667 67.1016 7.648 67.1016 7.84C67.1016 8.032 67.0963 8.21333 67.0856 8.384C67.0643 8.88533 66.9843 9.36533 66.8456 9.824C66.707 10.272 66.499 10.672 66.2216 11.024C65.955 11.3653 65.6083 11.6427 65.1816 11.856C64.7656 12.0587 64.259 12.16 63.6616 12.16C63.043 12.16 62.5203 12.048 62.0936 11.824C61.6776 11.5893 61.3363 11.3013 61.0696 10.96V14.672C61.0696 14.7787 61.0376 14.864 60.9736 14.928C60.9096 15.0027 60.8243 15.04 60.7176 15.04H59.9336ZM63.3256 10.864C63.8803 10.864 64.3123 10.7467 64.6216 10.512C64.9416 10.2667 65.171 9.952 65.3096 9.568C65.4483 9.17333 65.5283 8.752 65.5496 8.304C65.5603 7.99467 65.5603 7.68533 65.5496 7.376C65.5283 6.928 65.4483 6.512 65.3096 6.128C65.171 5.73333 64.9416 5.41867 64.6216 5.184C64.3123 4.93867 63.8803 4.816 63.3256 4.816C62.803 4.816 62.3763 4.93867 62.0456 5.184C61.7256 5.42933 61.4856 5.744 61.3256 6.128C61.1763 6.50133 61.091 6.88533 61.0696 7.28C61.059 7.45067 61.0536 7.65333 61.0536 7.888C61.0536 8.12267 61.059 8.33067 61.0696 8.512C61.0803 8.88533 61.1656 9.25333 61.3256 9.616C61.4963 9.97867 61.747 10.2773 62.0776 10.512C62.4083 10.7467 62.8243 10.864 63.3256 10.864ZM71.6409 12.16C71.1075 12.16 70.6222 12.0533 70.1849 11.84C69.7475 11.6267 69.3955 11.3387 69.1289 10.976C68.8622 10.6133 68.7289 10.2027 68.7289 9.744C68.7289 9.008 69.0275 8.42133 69.6249 7.984C70.2222 7.54667 71.0009 7.25867 71.9609 7.12L74.3449 6.784V6.32C74.3449 5.808 74.1955 5.408 73.8969 5.12C73.6089 4.832 73.1342 4.688 72.4729 4.688C72.0035 4.688 71.6195 4.784 71.3209 4.976C71.0222 5.168 70.8142 5.41333 70.6969 5.712C70.6329 5.872 70.5209 5.952 70.3609 5.952H69.6409C69.5235 5.952 69.4329 5.92 69.3689 5.856C69.3155 5.78133 69.2889 5.696 69.2889 5.6C69.2889 5.44 69.3475 5.24267 69.4649 5.008C69.5929 4.77333 69.7849 4.544 70.0409 4.32C70.2969 4.096 70.6222 3.90933 71.0169 3.76C71.4222 3.6 71.9129 3.52 72.4889 3.52C73.1289 3.52 73.6675 3.60533 74.1049 3.776C74.5422 3.936 74.8835 4.15467 75.1289 4.432C75.3849 4.70933 75.5662 5.024 75.6729 5.376C75.7902 5.728 75.8489 6.08533 75.8489 6.448V11.632C75.8489 11.7387 75.8115 11.8293 75.7369 11.904C75.6729 11.968 75.5875 12 75.4809 12H74.7449C74.6275 12 74.5369 11.968 74.4729 11.904C74.4089 11.8293 74.3769 11.7387 74.3769 11.632V10.944C74.2382 11.136 74.0515 11.328 73.8169 11.52C73.5822 11.7013 73.2889 11.856 72.9369 11.984C72.5849 12.1013 72.1529 12.16 71.6409 12.16ZM71.9769 10.96C72.4142 10.96 72.8142 10.8693 73.1769 10.688C73.5395 10.496 73.8222 10.2027 74.0249 9.808C74.2382 9.41333 74.3449 8.91733 74.3449 8.32V7.872L72.4889 8.144C71.7315 8.25067 71.1609 8.432 70.7769 8.688C70.3929 8.93333 70.2009 9.248 70.2009 9.632C70.2009 9.93067 70.2862 10.1813 70.4569 10.384C70.6382 10.576 70.8622 10.72 71.1289 10.816C71.4062 10.912 71.6889 10.96 71.9769 10.96ZM78.005 12C77.9197 12 77.8397 11.968 77.765 11.904C77.701 11.84 77.669 11.76 77.669 11.664C77.669 11.632 77.6743 11.5947 77.685 11.552C77.7063 11.4987 77.7383 11.44 77.781 11.376L80.565 7.744L77.957 4.304C77.9143 4.24 77.8823 4.18667 77.861 4.144C77.8503 4.10133 77.845 4.05867 77.845 4.016C77.845 3.92 77.877 3.84 77.941 3.776C78.005 3.712 78.085 3.68 78.181 3.68H78.997C79.1143 3.68 79.205 3.712 79.269 3.776C79.333 3.82933 79.381 3.88267 79.413 3.936L81.541 6.704L83.669 3.952C83.7117 3.89867 83.7597 3.84 83.813 3.776C83.877 3.712 83.9677 3.68 84.085 3.68H84.869C84.965 3.68 85.045 3.712 85.109 3.776C85.173 3.84 85.205 3.92 85.205 4.016C85.205 4.05867 85.1943 4.10133 85.173 4.144C85.1623 4.18667 85.1357 4.24 85.093 4.304L82.453 7.776L85.237 11.376C85.2797 11.44 85.3063 11.4933 85.317 11.536C85.3383 11.5787 85.349 11.6213 85.349 11.664C85.349 11.76 85.317 11.84 85.253 11.904C85.189 11.968 85.109 12 85.013 12H84.165C84.0583 12 83.973 11.9733 83.909 11.92C83.845 11.8667 83.7917 11.8133 83.749 11.76L81.509 8.832L79.237 11.76C79.1943 11.8027 79.141 11.856 79.077 11.92C79.0237 11.9733 78.9383 12 78.821 12H78.005ZM87.606 12C87.4993 12 87.414 11.968 87.35 11.904C87.286 11.84 87.254 11.7547 87.254 11.648V3.984C87.254 3.89867 87.286 3.82933 87.35 3.776C87.4247 3.712 87.4993 3.68 87.574 3.68H88.39C88.5607 3.68 88.694 3.76533 88.79 3.936L91.51 9.024L94.246 3.936C94.342 3.76533 94.4753 3.68 94.646 3.68H95.446C95.5313 3.68 95.606 3.712 95.67 3.776C95.734 3.82933 95.766 3.89867 95.766 3.984V11.648C95.766 11.7547 95.734 11.84 95.67 11.904C95.606 11.968 95.526 12 95.43 12H94.646C94.5393 12 94.454 11.968 94.39 11.904C94.326 11.84 94.294 11.7547 94.294 11.648V5.264L94.854 5.328L92.246 10.256C92.1927 10.3627 92.1287 10.4587 92.054 10.544C91.9793 10.6293 91.8673 10.672 91.718 10.672H91.302C91.1633 10.672 91.0567 10.6293 90.982 10.544C90.9073 10.4587 90.838 10.3627 90.774 10.256L88.246 5.568L88.742 5.52V11.648C88.742 11.7547 88.71 11.84 88.646 11.904C88.582 11.968 88.4967 12 88.39 12H87.606ZM100.72 12.16C100.187 12.16 99.7016 12.0533 99.2642 11.84C98.8269 11.6267 98.4749 11.3387 98.2082 10.976C97.9416 10.6133 97.8082 10.2027 97.8082 9.744C97.8082 9.008 98.1069 8.42133 98.7042 7.984C99.3016 7.54667 100.08 7.25867 101.04 7.12L103.424 6.784V6.32C103.424 5.808 103.275 5.408 102.976 5.12C102.688 4.832 102.214 4.688 101.552 4.688C101.083 4.688 100.699 4.784 100.4 4.976C100.102 5.168 99.8936 5.41333 99.7762 5.712C99.7122 5.872 99.6002 5.952 99.4402 5.952H98.7202C98.6029 5.952 98.5122 5.92 98.4482 5.856C98.3949 5.78133 98.3682 5.696 98.3682 5.6C98.3682 5.44 98.4269 5.24267 98.5442 5.008C98.6722 4.77333 98.8642 4.544 99.1202 4.32C99.3762 4.096 99.7016 3.90933 100.096 3.76C100.502 3.6 100.992 3.52 101.568 3.52C102.208 3.52 102.747 3.60533 103.184 3.776C103.622 3.936 103.963 4.15467 104.208 4.432C104.464 4.70933 104.646 5.024 104.752 5.376C104.87 5.728 104.928 6.08533 104.928 6.448V11.632C104.928 11.7387 104.891 11.8293 104.816 11.904C104.752 11.968 104.667 12 104.56 12H103.824C103.707 12 103.616 11.968 103.552 11.904C103.488 11.8293 103.456 11.7387 103.456 11.632V10.944C103.318 11.136 103.131 11.328 102.896 11.52C102.662 11.7013 102.368 11.856 102.016 11.984C101.664 12.1013 101.232 12.16 100.72 12.16ZM101.056 10.96C101.494 10.96 101.894 10.8693 102.256 10.688C102.619 10.496 102.902 10.2027 103.104 9.808C103.318 9.41333 103.424 8.91733 103.424 8.32V7.872L101.568 8.144C100.811 8.25067 100.24 8.432 99.8562 8.688C99.4722 8.93333 99.2802 9.248 99.2802 9.632C99.2802 9.93067 99.3656 10.1813 99.5362 10.384C99.7176 10.576 99.9416 10.72 100.208 10.816C100.486 10.912 100.768 10.96 101.056 10.96ZM107.836 12C107.73 12 107.639 11.968 107.564 11.904C107.5 11.8293 107.468 11.7387 107.468 11.632V4.048C107.468 3.94133 107.5 3.856 107.564 3.792C107.639 3.71733 107.73 3.68 107.836 3.68H108.604C108.711 3.68 108.796 3.71733 108.86 3.792C108.935 3.856 108.972 3.94133 108.972 4.048V7.12H113.324V4.048C113.324 3.94133 113.356 3.856 113.42 3.792C113.495 3.71733 113.586 3.68 113.692 3.68H114.444C114.551 3.68 114.636 3.71733 114.7 3.792C114.775 3.856 114.812 3.94133 114.812 4.048V11.632C114.812 11.7387 114.775 11.8293 114.7 11.904C114.636 11.968 114.551 12 114.444 12H113.692C113.586 12 113.495 11.968 113.42 11.904C113.356 11.8293 113.324 11.7387 113.324 11.632V8.4H108.972V11.632C108.972 11.7387 108.935 11.8293 108.86 11.904C108.796 11.968 108.711 12 108.604 12H107.836ZM120.866 12.16C120.056 12.16 119.378 12.0053 118.834 11.696C118.29 11.3867 117.874 10.96 117.586 10.416C117.298 9.86133 117.138 9.232 117.106 8.528C117.096 8.34667 117.09 8.11733 117.09 7.84C117.09 7.552 117.096 7.32267 117.106 7.152C117.138 6.43733 117.298 5.808 117.586 5.264C117.885 4.72 118.306 4.29333 118.85 3.984C119.394 3.67467 120.066 3.52 120.866 3.52C121.666 3.52 122.338 3.67467 122.882 3.984C123.426 4.29333 123.842 4.72 124.13 5.264C124.429 5.808 124.594 6.43733 124.626 7.152C124.637 7.32267 124.642 7.552 124.642 7.84C124.642 8.11733 124.637 8.34667 124.626 8.528C124.594 9.232 124.434 9.86133 124.146 10.416C123.858 10.96 123.442 11.3867 122.898 11.696C122.354 12.0053 121.677 12.16 120.866 12.16ZM120.866 10.928C121.528 10.928 122.056 10.72 122.45 10.304C122.845 9.87733 123.058 9.25867 123.09 8.448C123.101 8.288 123.106 8.08533 123.106 7.84C123.106 7.59467 123.101 7.392 123.09 7.232C123.058 6.42133 122.845 5.808 122.45 5.392C122.056 4.96533 121.528 4.752 120.866 4.752C120.205 4.752 119.672 4.96533 119.266 5.392C118.872 5.808 118.664 6.42133 118.642 7.232C118.632 7.392 118.626 7.59467 118.626 7.84C118.626 8.08533 118.632 8.288 118.642 8.448C118.664 9.25867 118.872 9.87733 119.266 10.304C119.672 10.72 120.205 10.928 120.866 10.928ZM127.254 12C127.147 12 127.057 11.968 126.982 11.904C126.918 11.8293 126.886 11.7387 126.886 11.632V4.048C126.886 3.94133 126.918 3.856 126.982 3.792C127.057 3.71733 127.147 3.68 127.254 3.68H130.582C131.585 3.68 132.337 3.88267 132.838 4.288C133.35 4.69333 133.606 5.23733 133.606 5.92C133.606 6.4 133.515 6.76267 133.334 7.008C133.153 7.25333 132.897 7.46133 132.566 7.632C132.971 7.80267 133.275 8.08 133.478 8.464C133.691 8.83733 133.798 9.22667 133.798 9.632C133.798 10.4 133.526 10.9867 132.982 11.392C132.449 11.7973 131.691 12 130.71 12H127.254ZM128.358 10.832H130.582C131.094 10.832 131.505 10.736 131.814 10.544C132.134 10.3413 132.294 10.0373 132.294 9.632C132.294 9.20533 132.15 8.896 131.862 8.704C131.574 8.50133 131.147 8.4 130.582 8.4H128.358V10.832ZM128.358 7.216H130.486C130.998 7.216 131.403 7.104 131.702 6.88C132.011 6.656 132.166 6.34133 132.166 5.936C132.166 5.52 132.011 5.23733 131.702 5.088C131.403 4.928 130.998 4.848 130.486 4.848H128.358V7.216ZM144.496 12.16C143.515 12.16 142.699 11.9787 142.048 11.616C141.408 11.2533 140.923 10.7467 140.592 10.096C140.262 9.44533 140.08 8.688 140.048 7.824C140.038 7.38667 140.032 6.91733 140.032 6.416C140.032 5.91467 140.038 5.43467 140.048 4.976C140.08 4.112 140.262 3.35467 140.592 2.704C140.923 2.05333 141.408 1.54667 142.048 1.184C142.699 0.821333 143.515 0.639999 144.496 0.639999C145.232 0.639999 145.878 0.741333 146.432 0.943999C146.987 1.14667 147.446 1.41867 147.808 1.76C148.182 2.10133 148.464 2.48533 148.656 2.912C148.848 3.328 148.955 3.76 148.976 4.208C148.987 4.304 148.955 4.384 148.88 4.448C148.816 4.512 148.736 4.544 148.64 4.544H147.76C147.664 4.544 147.579 4.51733 147.504 4.464C147.44 4.41067 147.392 4.31467 147.36 4.176C147.179 3.344 146.838 2.77333 146.336 2.464C145.846 2.15467 145.232 2 144.496 2C143.632 2 142.95 2.24533 142.448 2.736C141.947 3.216 141.68 3.98933 141.648 5.056C141.616 5.93067 141.616 6.82667 141.648 7.744C141.68 8.81067 141.947 9.58933 142.448 10.08C142.95 10.56 143.632 10.8 144.496 10.8C145.232 10.8 145.846 10.6453 146.336 10.336C146.838 10.0267 147.179 9.456 147.36 8.624C147.392 8.48533 147.44 8.38933 147.504 8.336C147.579 8.28267 147.664 8.256 147.76 8.256H148.64C148.736 8.256 148.816 8.288 148.88 8.352C148.955 8.40533 148.987 8.48 148.976 8.576C148.955 9.024 148.848 9.46133 148.656 9.888C148.464 10.3147 148.182 10.6987 147.808 11.04C147.446 11.3813 146.987 11.6533 146.432 11.856C145.878 12.0587 145.232 12.16 144.496 12.16ZM151.409 12C151.302 12 151.211 11.968 151.137 11.904C151.073 11.8293 151.041 11.7387 151.041 11.632V10.48C151.041 10.3733 151.073 10.288 151.137 10.224C151.211 10.1493 151.302 10.112 151.409 10.112H152.561C152.667 10.112 152.758 10.1493 152.833 10.224C152.907 10.288 152.945 10.3733 152.945 10.48V11.632C152.945 11.7387 152.907 11.8293 152.833 11.904C152.758 11.968 152.667 12 152.561 12H151.409ZM6.2735 34C6.16683 34 6.07617 33.968 6.0015 33.904C5.9375 33.8293 5.9055 33.7387 5.9055 33.632V31.328H0.721498C0.614832 31.328 0.524165 31.296 0.449498 31.232C0.385498 31.1573 0.353498 31.0667 0.353498 30.96V30.32C0.353498 30.2773 0.364165 30.2133 0.385498 30.128C0.417498 30.032 0.465498 29.936 0.529498 29.84L5.3295 23.072C5.4575 22.8907 5.65483 22.8 5.9215 22.8H7.0735C7.18017 22.8 7.2655 22.8373 7.3295 22.912C7.40417 22.976 7.4415 23.0613 7.4415 23.168V29.936H8.8815C8.99883 29.936 9.0895 29.9733 9.1535 30.048C9.22816 30.112 9.2655 30.1973 9.2655 30.304V30.96C9.2655 31.0667 9.22816 31.1573 9.1535 31.232C9.0895 31.296 9.00417 31.328 8.8975 31.328H7.4415V33.632C7.4415 33.7387 7.40417 33.8293 7.3295 33.904C7.2655 33.968 7.18017 34 7.0735 34H6.2735ZM2.0655 29.968H5.9215V24.48L2.0655 29.968ZM17.7009 34.16C17.1675 34.16 16.6822 34.0533 16.2449 33.84C15.8075 33.6267 15.4555 33.3387 15.1889 32.976C14.9222 32.6133 14.7889 32.2027 14.7889 31.744C14.7889 31.008 15.0875 30.4213 15.6849 29.984C16.2822 29.5467 17.0609 29.2587 18.0209 29.12L20.4049 28.784V28.32C20.4049 27.808 20.2555 27.408 19.9569 27.12C19.6689 26.832 19.1942 26.688 18.5329 26.688C18.0635 26.688 17.6795 26.784 17.3809 26.976C17.0822 27.168 16.8742 27.4133 16.7569 27.712C16.6929 27.872 16.5809 27.952 16.4209 27.952H15.7009C15.5835 27.952 15.4929 27.92 15.4289 27.856C15.3755 27.7813 15.3489 27.696 15.3489 27.6C15.3489 27.44 15.4075 27.2427 15.5249 27.008C15.6529 26.7733 15.8449 26.544 16.1009 26.32C16.3569 26.096 16.6822 25.9093 17.0769 25.76C17.4822 25.6 17.9729 25.52 18.5489 25.52C19.1889 25.52 19.7275 25.6053 20.1649 25.776C20.6022 25.936 20.9435 26.1547 21.1889 26.432C21.4449 26.7093 21.6262 27.024 21.7329 27.376C21.8502 27.728 21.9089 28.0853 21.9089 28.448V33.632C21.9089 33.7387 21.8715 33.8293 21.7969 33.904C21.7329 33.968 21.6475 34 21.5409 34H20.8049C20.6875 34 20.5969 33.968 20.5329 33.904C20.4689 33.8293 20.4369 33.7387 20.4369 33.632V32.944C20.2982 33.136 20.1115 33.328 19.8769 33.52C19.6422 33.7013 19.3489 33.856 18.9969 33.984C18.6449 34.1013 18.2129 34.16 17.7009 34.16ZM18.0369 32.96C18.4742 32.96 18.8742 32.8693 19.2369 32.688C19.5995 32.496 19.8822 32.2027 20.0849 31.808C20.2982 31.4133 20.4049 30.9173 20.4049 30.32V29.872L18.5489 30.144C17.7915 30.2507 17.2209 30.432 16.8369 30.688C16.4529 30.9333 16.2609 31.248 16.2609 31.632C16.2609 31.9307 16.3462 32.1813 16.5169 32.384C16.6982 32.576 16.9222 32.72 17.1889 32.816C17.4662 32.912 17.7489 32.96 18.0369 32.96ZM24.817 34C24.7103 34 24.6197 33.968 24.545 33.904C24.481 33.8293 24.449 33.7387 24.449 33.632V26.048C24.449 25.9413 24.481 25.856 24.545 25.792C24.6197 25.7173 24.7103 25.68 24.817 25.68H31.169C31.2757 25.68 31.361 25.7173 31.425 25.792C31.4997 25.856 31.537 25.9413 31.537 26.048V33.632C31.537 33.7387 31.4997 33.8293 31.425 33.904C31.361 33.968 31.2757 34 31.169 34H30.401C30.2943 34 30.209 33.968 30.145 33.904C30.081 33.8293 30.049 33.7387 30.049 33.632V26.96H25.953V33.632C25.953 33.7387 25.9157 33.8293 25.841 33.904C25.777 33.968 25.6917 34 25.585 34H24.817ZM34.5417 37.04C34.4351 37.04 34.3444 37.0027 34.2697 36.928C34.2057 36.864 34.1737 36.7787 34.1737 36.672V26.048C34.1737 25.9413 34.2057 25.856 34.2697 25.792C34.3444 25.7173 34.4351 25.68 34.5417 25.68H35.2777C35.3844 25.68 35.4697 25.7173 35.5337 25.792C35.6084 25.856 35.6457 25.9413 35.6457 26.048V26.752C35.9017 26.4 36.2431 26.1067 36.6697 25.872C37.0964 25.6373 37.6297 25.52 38.2697 25.52C38.8671 25.52 39.3737 25.6213 39.7897 25.824C40.2164 26.0267 40.5631 26.304 40.8297 26.656C41.1071 27.008 41.3151 27.408 41.4537 27.856C41.5924 28.304 41.6724 28.784 41.6937 29.296C41.7044 29.4667 41.7097 29.648 41.7097 29.84C41.7097 30.032 41.7044 30.2133 41.6937 30.384C41.6724 30.8853 41.5924 31.3653 41.4537 31.824C41.3151 32.272 41.1071 32.672 40.8297 33.024C40.5631 33.3653 40.2164 33.6427 39.7897 33.856C39.3737 34.0587 38.8671 34.16 38.2697 34.16C37.6511 34.16 37.1284 34.048 36.7017 33.824C36.2857 33.5893 35.9444 33.3013 35.6777 32.96V36.672C35.6777 36.7787 35.6457 36.864 35.5817 36.928C35.5177 37.0027 35.4324 37.04 35.3257 37.04H34.5417ZM37.9337 32.864C38.4884 32.864 38.9204 32.7467 39.2297 32.512C39.5497 32.2667 39.7791 31.952 39.9177 31.568C40.0564 31.1733 40.1364 30.752 40.1577 30.304C40.1684 29.9947 40.1684 29.6853 40.1577 29.376C40.1364 28.928 40.0564 28.512 39.9177 28.128C39.7791 27.7333 39.5497 27.4187 39.2297 27.184C38.9204 26.9387 38.4884 26.816 37.9337 26.816C37.4111 26.816 36.9844 26.9387 36.6537 27.184C36.3337 27.4293 36.0937 27.744 35.9337 28.128C35.7844 28.5013 35.6991 28.8853 35.6777 29.28C35.6671 29.4507 35.6617 29.6533 35.6617 29.888C35.6617 30.1227 35.6671 30.3307 35.6777 30.512C35.6884 30.8853 35.7737 31.2533 35.9337 31.616C36.1044 31.9787 36.3551 32.2773 36.6857 32.512C37.0164 32.7467 37.4324 32.864 37.9337 32.864ZM47.257 34.16C46.1477 34.16 45.2677 33.824 44.617 33.152C43.9663 32.4693 43.609 31.5413 43.545 30.368C43.5343 30.2293 43.529 30.0533 43.529 29.84C43.529 29.616 43.5343 29.4347 43.545 29.296C43.5877 28.5387 43.7637 27.8773 44.073 27.312C44.3823 26.736 44.8037 26.2933 45.337 25.984C45.881 25.6747 46.5157 25.52 47.241 25.52C48.0517 25.52 48.729 25.6907 49.273 26.032C49.8277 26.3733 50.249 26.8587 50.537 27.488C50.825 28.1173 50.969 28.8533 50.969 29.696V29.968C50.969 30.0853 50.9317 30.176 50.857 30.24C50.793 30.304 50.7077 30.336 50.601 30.336H45.065C45.065 30.3467 45.065 30.368 45.065 30.4C45.065 30.432 45.065 30.4587 45.065 30.48C45.0863 30.9173 45.1823 31.328 45.353 31.712C45.5237 32.0853 45.769 32.3893 46.089 32.624C46.4197 32.8587 46.8037 32.976 47.241 32.976C47.625 32.976 47.945 32.9173 48.201 32.8C48.457 32.6827 48.665 32.5547 48.825 32.416C48.985 32.2667 49.0917 32.1493 49.145 32.064C49.241 31.936 49.3157 31.8613 49.369 31.84C49.4223 31.808 49.5077 31.792 49.625 31.792H50.409C50.505 31.792 50.585 31.824 50.649 31.888C50.7237 31.9413 50.7557 32.0213 50.745 32.128C50.7343 32.288 50.649 32.4853 50.489 32.72C50.329 32.944 50.0997 33.168 49.801 33.392C49.513 33.616 49.1503 33.8027 48.713 33.952C48.2863 34.0907 47.801 34.16 47.257 34.16ZM45.065 29.232H49.449V29.184C49.449 28.704 49.3583 28.2773 49.177 27.904C49.0063 27.5307 48.7557 27.2373 48.425 27.024C48.0943 26.8 47.6997 26.688 47.241 26.688C46.7823 26.688 46.3877 26.8 46.057 27.024C45.737 27.2373 45.4917 27.5307 45.321 27.904C45.1503 28.2773 45.065 28.704 45.065 29.184V29.232ZM52.7221 34C52.6155 34 52.5248 33.9627 52.4501 33.888C52.3755 33.8133 52.3381 33.7227 52.3381 33.616V33.024C52.3381 32.7893 52.4501 32.672 52.6741 32.672C53.0048 32.6613 53.2821 32.5067 53.5061 32.208C53.7301 31.8987 53.9008 31.4133 54.0181 30.752C54.1355 30.08 54.1941 29.1947 54.1941 28.096V26.048C54.1941 25.9413 54.2261 25.856 54.2901 25.792C54.3648 25.7173 54.4555 25.68 54.5621 25.68H59.6501C59.7568 25.68 59.8421 25.7173 59.9061 25.792C59.9808 25.856 60.0181 25.9413 60.0181 26.048V33.632C60.0181 33.7387 59.9808 33.8293 59.9061 33.904C59.8421 33.968 59.7568 34 59.6501 34H58.8821C58.7755 34 58.6901 33.968 58.6261 33.904C58.5621 33.8293 58.5301 33.7387 58.5301 33.632V26.96H55.6501V28.272C55.6501 29.296 55.5915 30.176 55.4741 30.912C55.3568 31.6373 55.1755 32.2293 54.9301 32.688C54.6955 33.136 54.3915 33.4667 54.0181 33.68C53.6555 33.8933 53.2235 34 52.7221 34ZM67.8274 34C67.71 34 67.6194 33.968 67.5554 33.904C67.4914 33.8293 67.4594 33.7387 67.4594 33.632V31.024H65.6194V30.944C64.6167 30.944 63.87 30.6987 63.3794 30.208C62.8994 29.7067 62.6594 29.072 62.6594 28.304C62.6594 27.408 62.9207 26.7467 63.4434 26.32C63.9767 25.8933 64.7767 25.68 65.8434 25.68H68.5954C68.702 25.68 68.7874 25.7173 68.8514 25.792C68.926 25.856 68.9634 25.9413 68.9634 26.048V33.632C68.9634 33.7387 68.926 33.8293 68.8514 33.904C68.7874 33.968 68.702 34 68.5954 34H67.8274ZM62.7554 34C62.6594 34 62.5794 33.968 62.5154 33.904C62.4514 33.84 62.4194 33.7653 62.4194 33.68C62.4194 33.6373 62.4247 33.5947 62.4354 33.552C62.4567 33.4987 62.4887 33.4453 62.5314 33.392L64.4354 30.576L65.9714 30.688L63.9394 33.76C63.8967 33.8133 63.838 33.8667 63.7634 33.92C63.6887 33.9733 63.6087 34 63.5234 34H62.7554ZM65.6674 29.824H67.4754V26.88H65.7954C65.198 26.88 64.7554 26.9867 64.4674 27.2C64.19 27.4027 64.0514 27.7707 64.0514 28.304C64.0514 28.7413 64.1794 29.104 64.4354 29.392C64.702 29.68 65.1127 29.824 65.6674 29.824ZM75.732 34C75.6253 34 75.5347 33.968 75.46 33.904C75.396 33.8293 75.364 33.7387 75.364 33.632V33.12C75.364 33.024 75.3907 32.9173 75.444 32.8C75.4973 32.6827 75.604 32.5547 75.764 32.416L79.156 29.024C79.7 28.5653 80.1267 28.176 80.436 27.856C80.756 27.5253 80.98 27.2107 81.108 26.912C81.2467 26.6133 81.316 26.304 81.316 25.984C81.316 25.376 81.1453 24.896 80.804 24.544C80.4627 24.1813 79.956 24 79.284 24C78.8573 24 78.4893 24.0907 78.18 24.272C77.8707 24.4427 77.6307 24.6827 77.46 24.992C77.2893 25.2907 77.172 25.632 77.108 26.016C77.0867 26.1547 77.028 26.2507 76.932 26.304C76.8467 26.3573 76.7667 26.384 76.692 26.384H75.86C75.764 26.384 75.684 26.3573 75.62 26.304C75.556 26.24 75.524 26.1653 75.524 26.08C75.5347 25.6747 75.62 25.2693 75.78 24.864C75.94 24.448 76.1747 24.0747 76.484 23.744C76.804 23.4027 77.1933 23.1307 77.652 22.928C78.1213 22.7253 78.6653 22.624 79.284 22.624C80.1267 22.624 80.8147 22.7787 81.348 23.088C81.892 23.3867 82.292 23.7867 82.548 24.288C82.804 24.7893 82.932 25.3387 82.932 25.936C82.932 26.4053 82.852 26.8373 82.692 27.232C82.532 27.616 82.2973 27.9947 81.988 28.368C81.6893 28.7307 81.316 29.104 80.868 29.488L77.796 32.608H82.788C82.9053 32.608 82.996 32.64 83.06 32.704C83.1347 32.768 83.172 32.8587 83.172 32.976V33.632C83.172 33.7387 83.1347 33.8293 83.06 33.904C82.996 33.968 82.9053 34 82.788 34H75.732ZM89.2826 34.16C88.5466 34.16 87.9226 34.048 87.4106 33.824C86.9093 33.5893 86.4986 33.2693 86.1786 32.864C85.8586 32.4587 85.624 31.9947 85.4746 31.472C85.336 30.9493 85.256 30.3947 85.2346 29.808C85.224 29.52 85.2133 29.216 85.2026 28.896C85.2026 28.576 85.2026 28.2507 85.2026 27.92C85.2133 27.5893 85.224 27.2747 85.2346 26.976C85.2453 26.3893 85.3253 25.8347 85.4746 25.312C85.6346 24.7893 85.8746 24.3307 86.1946 23.936C86.5146 23.5307 86.9253 23.216 87.4266 22.992C87.9386 22.7573 88.5573 22.64 89.2826 22.64C90.0186 22.64 90.6373 22.7573 91.1386 22.992C91.6506 23.216 92.0666 23.5307 92.3866 23.936C92.7066 24.3307 92.9413 24.7893 93.0906 25.312C93.2506 25.8347 93.336 26.3893 93.3466 26.976C93.3573 27.2747 93.3626 27.5893 93.3626 27.92C93.3733 28.2507 93.3733 28.576 93.3626 28.896C93.3626 29.216 93.3573 29.52 93.3466 29.808C93.336 30.3947 93.2506 30.9493 93.0906 31.472C92.9413 31.9947 92.7066 32.4587 92.3866 32.864C92.0773 33.2693 91.6666 33.5893 91.1546 33.824C90.6533 34.048 90.0293 34.16 89.2826 34.16ZM89.2826 32.784C90.1146 32.784 90.728 32.512 91.1226 31.968C91.528 31.424 91.736 30.6773 91.7466 29.728C91.768 29.4187 91.7786 29.12 91.7786 28.832C91.7786 28.5333 91.7786 28.24 91.7786 27.952C91.7786 27.6533 91.768 27.36 91.7466 27.072C91.736 26.144 91.528 25.4027 91.1226 24.848C90.728 24.2827 90.1146 24 89.2826 24C88.4613 24 87.848 24.2827 87.4426 24.848C87.048 25.4027 86.84 26.144 86.8186 27.072C86.8186 27.36 86.8133 27.6533 86.8026 27.952C86.8026 28.24 86.8026 28.5333 86.8026 28.832C86.8133 29.12 86.8186 29.4187 86.8186 29.728C86.84 30.6773 87.0533 31.424 87.4586 31.968C87.864 32.512 88.472 32.784 89.2826 32.784ZM95.7589 34C95.6522 34 95.5615 33.968 95.4869 33.904C95.4229 33.8293 95.3909 33.7387 95.3909 33.632V33.12C95.3909 33.024 95.4175 32.9173 95.4709 32.8C95.5242 32.6827 95.6309 32.5547 95.7909 32.416L99.1829 29.024C99.7269 28.5653 100.154 28.176 100.463 27.856C100.783 27.5253 101.007 27.2107 101.135 26.912C101.274 26.6133 101.343 26.304 101.343 25.984C101.343 25.376 101.172 24.896 100.831 24.544C100.49 24.1813 99.9829 24 99.3109 24C98.8842 24 98.5162 24.0907 98.2069 24.272C97.8975 24.4427 97.6575 24.6827 97.4869 24.992C97.3162 25.2907 97.1989 25.632 97.1349 26.016C97.1135 26.1547 97.0549 26.2507 96.9589 26.304C96.8735 26.3573 96.7935 26.384 96.7189 26.384H95.8869C95.7909 26.384 95.7109 26.3573 95.6469 26.304C95.5829 26.24 95.5509 26.1653 95.5509 26.08C95.5615 25.6747 95.6469 25.2693 95.8069 24.864C95.9669 24.448 96.2015 24.0747 96.5109 23.744C96.8309 23.4027 97.2202 23.1307 97.6789 22.928C98.1482 22.7253 98.6922 22.624 99.3109 22.624C100.154 22.624 100.842 22.7787 101.375 23.088C101.919 23.3867 102.319 23.7867 102.575 24.288C102.831 24.7893 102.959 25.3387 102.959 25.936C102.959 26.4053 102.879 26.8373 102.719 27.232C102.559 27.616 102.324 27.9947 102.015 28.368C101.716 28.7307 101.343 29.104 100.895 29.488L97.8229 32.608H102.815C102.932 32.608 103.023 32.64 103.087 32.704C103.162 32.768 103.199 32.8587 103.199 32.976V33.632C103.199 33.7387 103.162 33.8293 103.087 33.904C103.023 33.968 102.932 34 102.815 34H95.7589ZM109.309 34.16C108.573 34.16 107.949 34.048 107.437 33.824C106.936 33.5893 106.525 33.2693 106.205 32.864C105.885 32.4587 105.651 31.9947 105.501 31.472C105.363 30.9493 105.283 30.3947 105.261 29.808C105.251 29.52 105.24 29.216 105.229 28.896C105.229 28.576 105.229 28.2507 105.229 27.92C105.24 27.5893 105.251 27.2747 105.261 26.976C105.272 26.3893 105.352 25.8347 105.501 25.312C105.661 24.7893 105.901 24.3307 106.221 23.936C106.541 23.5307 106.952 23.216 107.453 22.992C107.965 22.7573 108.584 22.64 109.309 22.64C110.045 22.64 110.664 22.7573 111.165 22.992C111.677 23.216 112.093 23.5307 112.413 23.936C112.733 24.3307 112.968 24.7893 113.117 25.312C113.277 25.8347 113.363 26.3893 113.373 26.976C113.384 27.2747 113.389 27.5893 113.389 27.92C113.4 28.2507 113.4 28.576 113.389 28.896C113.389 29.216 113.384 29.52 113.373 29.808C113.363 30.3947 113.277 30.9493 113.117 31.472C112.968 31.9947 112.733 32.4587 112.413 32.864C112.104 33.2693 111.693 33.5893 111.181 33.824C110.68 34.048 110.056 34.16 109.309 34.16ZM109.309 32.784C110.141 32.784 110.755 32.512 111.149 31.968C111.555 31.424 111.763 30.6773 111.773 29.728C111.795 29.4187 111.805 29.12 111.805 28.832C111.805 28.5333 111.805 28.24 111.805 27.952C111.805 27.6533 111.795 27.36 111.773 27.072C111.763 26.144 111.555 25.4027 111.149 24.848C110.755 24.2827 110.141 24 109.309 24C108.488 24 107.875 24.2827 107.469 24.848C107.075 25.4027 106.867 26.144 106.845 27.072C106.845 27.36 106.84 27.6533 106.829 27.952C106.829 28.24 106.829 28.5333 106.829 28.832C106.84 29.12 106.845 29.4187 106.845 29.728C106.867 30.6773 107.08 31.424 107.485 31.968C107.891 32.512 108.499 32.784 109.309 32.784ZM120.348 34C120.241 34 120.15 33.968 120.076 33.904C120.012 33.8293 119.98 33.7387 119.98 33.632V26.048C119.98 25.9413 120.012 25.856 120.076 25.792C120.15 25.7173 120.241 25.68 120.348 25.68H125.132C125.238 25.68 125.324 25.7173 125.388 25.792C125.462 25.856 125.5 25.9413 125.5 26.048V26.592C125.5 26.6987 125.462 26.7893 125.388 26.864C125.324 26.928 125.238 26.96 125.132 26.96H121.484V33.632C121.484 33.7387 121.446 33.8293 121.372 33.904C121.308 33.968 121.222 34 121.116 34H120.348ZM130.503 34.16C129.692 34.16 129.015 34.0053 128.471 33.696C127.927 33.3867 127.511 32.96 127.223 32.416C126.935 31.8613 126.775 31.232 126.743 30.528C126.732 30.3467 126.727 30.1173 126.727 29.84C126.727 29.552 126.732 29.3227 126.743 29.152C126.775 28.4373 126.935 27.808 127.223 27.264C127.521 26.72 127.943 26.2933 128.487 25.984C129.031 25.6747 129.703 25.52 130.503 25.52C131.303 25.52 131.975 25.6747 132.519 25.984C133.063 26.2933 133.479 26.72 133.767 27.264C134.065 27.808 134.231 28.4373 134.263 29.152C134.273 29.3227 134.279 29.552 134.279 29.84C134.279 30.1173 134.273 30.3467 134.263 30.528C134.231 31.232 134.071 31.8613 133.783 32.416C133.495 32.96 133.079 33.3867 132.535 33.696C131.991 34.0053 131.313 34.16 130.503 34.16ZM130.503 32.928C131.164 32.928 131.692 32.72 132.087 32.304C132.481 31.8773 132.695 31.2587 132.727 30.448C132.737 30.288 132.743 30.0853 132.743 29.84C132.743 29.5947 132.737 29.392 132.727 29.232C132.695 28.4213 132.481 27.808 132.087 27.392C131.692 26.9653 131.164 26.752 130.503 26.752C129.841 26.752 129.308 26.9653 128.903 27.392C128.508 27.808 128.3 28.4213 128.279 29.232C128.268 29.392 128.263 29.5947 128.263 29.84C128.263 30.0853 128.268 30.288 128.279 30.448C128.3 31.2587 128.508 31.8773 128.903 32.304C129.308 32.72 129.841 32.928 130.503 32.928ZM136.042 35.76C135.935 35.76 135.845 35.7227 135.77 35.648C135.706 35.584 135.674 35.4987 135.674 35.392V33.088C135.674 32.9813 135.706 32.896 135.77 32.832C135.845 32.7573 135.935 32.72 136.042 32.72H136.122C136.41 32.7093 136.655 32.5493 136.858 32.24C137.061 31.92 137.215 31.424 137.322 30.752C137.429 30.0693 137.482 29.184 137.482 28.096V26.048C137.482 25.9413 137.514 25.856 137.578 25.792C137.653 25.7173 137.743 25.68 137.85 25.68H142.954C143.071 25.68 143.162 25.7173 143.226 25.792C143.29 25.856 143.322 25.9413 143.322 26.048V32.688H144.074C144.191 32.688 144.282 32.7253 144.346 32.8C144.41 32.864 144.442 32.9493 144.442 33.056V35.392C144.442 35.4987 144.41 35.584 144.346 35.648C144.282 35.7227 144.191 35.76 144.074 35.76H143.322C143.215 35.76 143.125 35.7227 143.05 35.648C142.986 35.584 142.954 35.4987 142.954 35.392V34H137.162V35.392C137.162 35.4987 137.125 35.584 137.05 35.648C136.986 35.7227 136.901 35.76 136.794 35.76H136.042ZM138.026 32.72L141.834 32.688V26.96H138.938V28.272C138.938 29.4027 138.858 30.3307 138.698 31.056C138.538 31.7707 138.314 32.3253 138.026 32.72ZM148.676 34.16C148.143 34.16 147.657 34.0533 147.22 33.84C146.783 33.6267 146.431 33.3387 146.164 32.976C145.897 32.6133 145.764 32.2027 145.764 31.744C145.764 31.008 146.063 30.4213 146.66 29.984C147.257 29.5467 148.036 29.2587 148.996 29.12L151.38 28.784V28.32C151.38 27.808 151.231 27.408 150.932 27.12C150.644 26.832 150.169 26.688 149.508 26.688C149.039 26.688 148.655 26.784 148.356 26.976C148.057 27.168 147.849 27.4133 147.732 27.712C147.668 27.872 147.556 27.952 147.396 27.952H146.676C146.559 27.952 146.468 27.92 146.404 27.856C146.351 27.7813 146.324 27.696 146.324 27.6C146.324 27.44 146.383 27.2427 146.5 27.008C146.628 26.7733 146.82 26.544 147.076 26.32C147.332 26.096 147.657 25.9093 148.052 25.76C148.457 25.6 148.948 25.52 149.524 25.52C150.164 25.52 150.703 25.6053 151.14 25.776C151.577 25.936 151.919 26.1547 152.164 26.432C152.42 26.7093 152.601 27.024 152.708 27.376C152.825 27.728 152.884 28.0853 152.884 28.448V33.632C152.884 33.7387 152.847 33.8293 152.772 33.904C152.708 33.968 152.623 34 152.516 34H151.78C151.663 34 151.572 33.968 151.508 33.904C151.444 33.8293 151.412 33.7387 151.412 33.632V32.944C151.273 33.136 151.087 33.328 150.852 33.52C150.617 33.7013 150.324 33.856 149.972 33.984C149.62 34.1013 149.188 34.16 148.676 34.16ZM149.012 32.96C149.449 32.96 149.849 32.8693 150.212 32.688C150.575 32.496 150.857 32.2027 151.06 31.808C151.273 31.4133 151.38 30.9173 151.38 30.32V29.872L149.524 30.144C148.767 30.2507 148.196 30.432 147.812 30.688C147.428 30.9333 147.236 31.248 147.236 31.632C147.236 31.9307 147.321 32.1813 147.492 32.384C147.673 32.576 147.897 32.72 148.164 32.816C148.441 32.912 148.724 32.96 149.012 32.96Z" fill="#605D74"/>
</svg>
