<svg width="163" height="38" viewBox="0 0 163 38" fill="none" xmlns="http://www.w3.org/2000/svg">
<path d="M42.9994 12C42.882 12 42.7914 11.968 42.7274 11.904C42.6634 11.8293 42.6314 11.7387 42.6314 11.632V1.184C42.6314 1.06667 42.6634 0.976 42.7274 0.912C42.7914 0.837333 42.882 0.799999 42.9994 0.799999H49.9594C50.0767 0.799999 50.1674 0.837333 50.2314 0.912C50.306 0.976 50.3434 1.06667 50.3434 1.184V1.824C50.3434 1.93067 50.306 2.02133 50.2314 2.096C50.1674 2.16 50.0767 2.192 49.9594 2.192H44.1994V5.424H47.3674C48.498 5.424 49.378 5.71733 50.0074 6.304C50.6367 6.89067 50.9514 7.68 50.9514 8.672C50.9514 9.06667 50.8767 9.46133 50.7274 9.856C50.578 10.2507 50.354 10.608 50.0554 10.928C49.7674 11.248 49.3994 11.5093 48.9514 11.712C48.5034 11.904 47.9754 12 47.3674 12H42.9994ZM44.1994 10.704H47.1754C47.6447 10.704 48.0394 10.608 48.3594 10.416C48.6794 10.224 48.9247 9.97333 49.0954 9.664C49.266 9.344 49.3514 8.99733 49.3514 8.624C49.3514 8.05867 49.17 7.6 48.8074 7.248C48.4554 6.88533 47.9114 6.704 47.1754 6.704H44.1994V10.704ZM55.2177 12.16C54.6844 12.16 54.1991 12.0533 53.7617 11.84C53.3244 11.6267 52.9724 11.3387 52.7057 10.976C52.4391 10.6133 52.3057 10.2027 52.3057 9.744C52.3057 9.008 52.6044 8.42133 53.2017 7.984C53.7991 7.54667 54.5777 7.25867 55.5377 7.12L57.9217 6.784V6.32C57.9217 5.808 57.7724 5.408 57.4737 5.12C57.1857 4.832 56.7111 4.688 56.0497 4.688C55.5804 4.688 55.1964 4.784 54.8977 4.976C54.5991 5.168 54.3911 5.41333 54.2737 5.712C54.2097 5.872 54.0977 5.952 53.9377 5.952H53.2177C53.1004 5.952 53.0097 5.92 52.9457 5.856C52.8924 5.78133 52.8657 5.696 52.8657 5.6C52.8657 5.44 52.9244 5.24267 53.0417 5.008C53.1697 4.77333 53.3617 4.544 53.6177 4.32C53.8737 4.096 54.1991 3.90933 54.5937 3.76C54.9991 3.6 55.4897 3.52 56.0657 3.52C56.7057 3.52 57.2444 3.60533 57.6817 3.776C58.1191 3.936 58.4604 4.15467 58.7057 4.432C58.9617 4.70933 59.1431 5.024 59.2497 5.376C59.3671 5.728 59.4257 6.08533 59.4257 6.448V11.632C59.4257 11.7387 59.3884 11.8293 59.3137 11.904C59.2497 11.968 59.1644 12 59.0577 12H58.3217C58.2044 12 58.1137 11.968 58.0497 11.904C57.9857 11.8293 57.9537 11.7387 57.9537 11.632V10.944C57.8151 11.136 57.6284 11.328 57.3937 11.52C57.1591 11.7013 56.8657 11.856 56.5137 11.984C56.1617 12.1013 55.7297 12.16 55.2177 12.16ZM55.5537 10.96C55.9911 10.96 56.3911 10.8693 56.7537 10.688C57.1164 10.496 57.3991 10.2027 57.6017 9.808C57.8151 9.41333 57.9217 8.91733 57.9217 8.32V7.872L56.0657 8.144C55.3084 8.25067 54.7377 8.432 54.3537 8.688C53.9697 8.93333 53.7777 9.248 53.7777 9.632C53.7777 9.93067 53.8631 10.1813 54.0337 10.384C54.2151 10.576 54.4391 10.72 54.7057 10.816C54.9831 10.912 55.2657 10.96 55.5537 10.96ZM62.3339 12C62.2272 12 62.1365 11.968 62.0619 11.904C61.9979 11.8293 61.9659 11.7387 61.9659 11.632V4.048C61.9659 3.94133 61.9979 3.856 62.0619 3.792C62.1365 3.71733 62.2272 3.68 62.3339 3.68H63.0859C63.1925 3.68 63.2779 3.71733 63.3419 3.792C63.4165 3.856 63.4539 3.94133 63.4539 4.048V7.12H64.9099L67.0699 3.92C67.1232 3.84533 67.1819 3.78667 67.2459 3.744C67.3099 3.70133 67.3952 3.68 67.5019 3.68H68.3339C68.4299 3.68 68.5099 3.70133 68.5739 3.744C68.6379 3.78667 68.6699 3.85067 68.6699 3.936C68.6699 3.95733 68.6592 3.98933 68.6379 4.032C68.6272 4.064 68.6112 4.096 68.5899 4.128L66.1899 7.664L68.9099 11.536C68.9632 11.6 68.9899 11.6693 68.9899 11.744C68.9899 11.8293 68.9579 11.8933 68.8939 11.936C68.8405 11.9787 68.7659 12 68.6699 12H67.6939C67.5979 12 67.5179 11.9787 67.4539 11.936C67.3899 11.8933 67.3312 11.8347 67.2779 11.76L64.9259 8.416H63.4539V11.632C63.4539 11.7387 63.4165 11.8293 63.3419 11.904C63.2779 11.968 63.1925 12 63.0859 12H62.3339ZM71.152 12C71.0453 12 70.9547 11.968 70.88 11.904C70.816 11.8293 70.784 11.7387 70.784 11.632V4.048C70.784 3.94133 70.816 3.856 70.88 3.792C70.9547 3.71733 71.0453 3.68 71.152 3.68H71.92C72.0267 3.68 72.112 3.71733 72.176 3.792C72.2507 3.856 72.288 3.94133 72.288 4.048V6.4H73.952C75.04 6.4 75.8347 6.656 76.336 7.168C76.8373 7.68 77.088 8.37333 77.088 9.248C77.088 10.1867 76.8107 10.88 76.256 11.328C75.7013 11.776 74.8693 12 73.76 12H71.152ZM72.272 10.8H73.808C74.4587 10.8 74.9333 10.688 75.232 10.464C75.5307 10.2293 75.68 9.824 75.68 9.248C75.68 8.69333 75.536 8.28267 75.248 8.016C74.96 7.73867 74.48 7.6 73.808 7.6H72.272V10.8ZM78.592 12C78.4853 12 78.3947 11.968 78.32 11.904C78.256 11.8293 78.224 11.7387 78.224 11.632V4.048C78.224 3.94133 78.256 3.856 78.32 3.792C78.3947 3.71733 78.4853 3.68 78.592 3.68H79.36C79.4667 3.68 79.552 3.71733 79.616 3.792C79.6907 3.856 79.728 3.94133 79.728 4.048V11.632C79.728 11.7387 79.6907 11.8293 79.616 11.904C79.552 11.968 79.4667 12 79.36 12H78.592ZM84.8961 12C84.7895 12 84.6988 11.968 84.6241 11.904C84.5601 11.8293 84.5281 11.7387 84.5281 11.632V4.96H81.7441C81.6375 4.96 81.5468 4.928 81.4721 4.864C81.4081 4.78933 81.3761 4.69867 81.3761 4.592V4.048C81.3761 3.94133 81.4081 3.856 81.4721 3.792C81.5468 3.71733 81.6375 3.68 81.7441 3.68H88.7841C88.8908 3.68 88.9761 3.71733 89.0401 3.792C89.1148 3.856 89.1521 3.94133 89.1521 4.048V4.592C89.1521 4.69867 89.1148 4.78933 89.0401 4.864C88.9761 4.928 88.8908 4.96 88.7841 4.96H86.0001V11.632C86.0001 11.7387 85.9681 11.8293 85.9041 11.904C85.8401 11.968 85.7548 12 85.6481 12H84.8961ZM94.2996 12.16C93.4783 12.16 92.7903 12.0053 92.2356 11.696C91.6916 11.376 91.2756 10.928 90.9876 10.352C90.7103 9.76533 90.561 9.088 90.5396 8.32C90.529 8 90.5236 7.68 90.5236 7.36C90.5236 7.04 90.529 6.72 90.5396 6.4C90.5396 5.42933 90.6196 4.624 90.7796 3.984C90.9396 3.33333 91.1796 2.80533 91.4996 2.4C91.8303 1.984 92.2463 1.648 92.7476 1.392C93.249 1.12533 93.841 0.896 94.5236 0.704C95.2063 0.501333 95.985 0.287999 96.8596 0.0639992C96.9556 0.0426661 97.0463 0.0586662 97.1316 0.112C97.2276 0.165333 97.281 0.239999 97.2916 0.335999L97.4196 0.992C97.441 1.088 97.425 1.17333 97.3716 1.248C97.329 1.32267 97.2596 1.37067 97.1636 1.392C96.3636 1.59467 95.665 1.77067 95.0676 1.92C94.4703 2.06933 93.969 2.24533 93.5636 2.448C93.1583 2.64 92.833 2.89067 92.5876 3.2C92.353 3.50933 92.1876 3.92 92.0916 4.432C91.9956 4.944 91.9636 5.6 91.9956 6.4L91.6596 6.256C91.7023 5.85067 91.8623 5.488 92.1396 5.168C92.4276 4.848 92.785 4.58667 93.2116 4.384C93.6383 4.18133 94.0916 4.08 94.5716 4.08C95.3076 4.08 95.9263 4.23467 96.4276 4.544C96.9396 4.85333 97.329 5.27467 97.5956 5.808C97.873 6.34133 98.0276 6.95467 98.0596 7.648C98.081 8.01067 98.081 8.32533 98.0596 8.592C98.0276 9.28533 97.8676 9.904 97.5796 10.448C97.2916 10.9813 96.8756 11.4027 96.3316 11.712C95.7876 12.0107 95.1103 12.16 94.2996 12.16ZM94.2996 10.976C94.9716 10.976 95.505 10.768 95.8996 10.352C96.2943 9.92533 96.5023 9.31733 96.5236 8.528C96.5343 8.42133 96.5396 8.29867 96.5396 8.16C96.5396 8.02133 96.5343 7.87733 96.5236 7.728C96.5023 6.91733 96.2943 6.304 95.8996 5.888C95.5156 5.472 95.0303 5.264 94.4436 5.264C93.7716 5.264 93.217 5.472 92.7796 5.888C92.3423 6.304 92.1076 6.91733 92.0756 7.728C92.065 7.87733 92.0596 8.02133 92.0596 8.16C92.0596 8.29867 92.065 8.42133 92.0756 8.528C92.1076 9.31733 92.321 9.92533 92.7156 10.352C93.1103 10.768 93.6383 10.976 94.2996 10.976ZM103.644 12.16C102.535 12.16 101.655 11.824 101.004 11.152C100.354 10.4693 99.9965 9.54133 99.9325 8.368C99.9218 8.22933 99.9165 8.05333 99.9165 7.84C99.9165 7.616 99.9218 7.43467 99.9325 7.296C99.9752 6.53867 100.151 5.87733 100.46 5.312C100.77 4.736 101.191 4.29333 101.724 3.984C102.268 3.67467 102.903 3.52 103.628 3.52C104.439 3.52 105.116 3.69067 105.66 4.032C106.215 4.37333 106.636 4.85867 106.924 5.488C107.212 6.11733 107.356 6.85333 107.356 7.696V7.968C107.356 8.08533 107.319 8.176 107.244 8.24C107.18 8.304 107.095 8.336 106.988 8.336H101.452C101.452 8.34667 101.452 8.368 101.452 8.4C101.452 8.432 101.452 8.45867 101.452 8.48C101.474 8.91733 101.57 9.328 101.74 9.712C101.911 10.0853 102.156 10.3893 102.476 10.624C102.807 10.8587 103.191 10.976 103.628 10.976C104.012 10.976 104.332 10.9173 104.588 10.8C104.844 10.6827 105.052 10.5547 105.212 10.416C105.372 10.2667 105.479 10.1493 105.532 10.064C105.628 9.936 105.703 9.86133 105.756 9.84C105.81 9.808 105.895 9.792 106.012 9.792H106.796C106.892 9.792 106.972 9.824 107.036 9.888C107.111 9.94133 107.143 10.0213 107.132 10.128C107.122 10.288 107.036 10.4853 106.876 10.72C106.716 10.944 106.487 11.168 106.188 11.392C105.9 11.616 105.538 11.8027 105.1 11.952C104.674 12.0907 104.188 12.16 103.644 12.16ZM101.452 7.232H105.836V7.184C105.836 6.704 105.746 6.27733 105.564 5.904C105.394 5.53067 105.143 5.23733 104.812 5.024C104.482 4.8 104.087 4.688 103.628 4.688C103.17 4.688 102.775 4.8 102.444 5.024C102.124 5.23733 101.879 5.53067 101.708 5.904C101.538 6.27733 101.452 6.704 101.452 7.184V7.232ZM109.878 12C109.771 12 109.68 11.968 109.606 11.904C109.542 11.8293 109.51 11.7387 109.51 11.632V4.048C109.51 3.94133 109.542 3.856 109.606 3.792C109.68 3.71733 109.771 3.68 109.878 3.68H110.63C110.736 3.68 110.822 3.71733 110.886 3.792C110.96 3.856 110.998 3.94133 110.998 4.048V7.12H112.454L114.614 3.92C114.667 3.84533 114.726 3.78667 114.79 3.744C114.854 3.70133 114.939 3.68 115.046 3.68H115.878C115.974 3.68 116.054 3.70133 116.118 3.744C116.182 3.78667 116.214 3.85067 116.214 3.936C116.214 3.95733 116.203 3.98933 116.182 4.032C116.171 4.064 116.155 4.096 116.134 4.128L113.734 7.664L116.454 11.536C116.507 11.6 116.534 11.6693 116.534 11.744C116.534 11.8293 116.502 11.8933 116.438 11.936C116.384 11.9787 116.31 12 116.214 12H115.238C115.142 12 115.062 11.9787 114.998 11.936C114.934 11.8933 114.875 11.8347 114.822 11.76L112.47 8.416H110.998V11.632C110.998 11.7387 110.96 11.8293 110.886 11.904C110.822 11.968 110.736 12 110.63 12H109.878ZM121.736 12.16C120.925 12.16 120.248 12.0053 119.704 11.696C119.16 11.3867 118.744 10.96 118.456 10.416C118.168 9.86133 118.008 9.232 117.976 8.528C117.965 8.34667 117.96 8.11733 117.96 7.84C117.96 7.552 117.965 7.32267 117.976 7.152C118.008 6.43733 118.168 5.808 118.456 5.264C118.754 4.72 119.176 4.29333 119.72 3.984C120.264 3.67467 120.936 3.52 121.736 3.52C122.536 3.52 123.208 3.67467 123.752 3.984C124.296 4.29333 124.712 4.72 125 5.264C125.298 5.808 125.464 6.43733 125.496 7.152C125.506 7.32267 125.512 7.552 125.512 7.84C125.512 8.11733 125.506 8.34667 125.496 8.528C125.464 9.232 125.304 9.86133 125.016 10.416C124.728 10.96 124.312 11.3867 123.768 11.696C123.224 12.0053 122.546 12.16 121.736 12.16ZM121.736 10.928C122.397 10.928 122.925 10.72 123.32 10.304C123.714 9.87733 123.928 9.25867 123.96 8.448C123.97 8.288 123.976 8.08533 123.976 7.84C123.976 7.59467 123.97 7.392 123.96 7.232C123.928 6.42133 123.714 5.808 123.32 5.392C122.925 4.96533 122.397 4.752 121.736 4.752C121.074 4.752 120.541 4.96533 120.136 5.392C119.741 5.808 119.533 6.42133 119.512 7.232C119.501 7.392 119.496 7.59467 119.496 7.84C119.496 8.08533 119.501 8.288 119.512 8.448C119.533 9.25867 119.741 9.87733 120.136 10.304C120.541 10.72 121.074 10.928 121.736 10.928ZM128.123 12C128.017 12 127.926 11.968 127.851 11.904C127.787 11.8293 127.755 11.7387 127.755 11.632V4.048C127.755 3.94133 127.787 3.856 127.851 3.792C127.926 3.71733 128.017 3.68 128.123 3.68H131.451C132.454 3.68 133.206 3.88267 133.707 4.288C134.219 4.69333 134.475 5.23733 134.475 5.92C134.475 6.4 134.385 6.76267 134.203 7.008C134.022 7.25333 133.766 7.46133 133.435 7.632C133.841 7.80267 134.145 8.08 134.347 8.464C134.561 8.83733 134.667 9.22667 134.667 9.632C134.667 10.4 134.395 10.9867 133.851 11.392C133.318 11.7973 132.561 12 131.579 12H128.123ZM129.227 10.832H131.451C131.963 10.832 132.374 10.736 132.683 10.544C133.003 10.3413 133.163 10.0373 133.163 9.632C133.163 9.20533 133.019 8.896 132.731 8.704C132.443 8.50133 132.017 8.4 131.451 8.4H129.227V10.832ZM129.227 7.216H131.355C131.867 7.216 132.273 7.104 132.571 6.88C132.881 6.656 133.035 6.34133 133.035 5.936C133.035 5.52 132.881 5.23733 132.571 5.088C132.273 4.928 131.867 4.848 131.355 4.848H129.227V7.216ZM139.284 12.16C138.751 12.16 138.265 12.0533 137.828 11.84C137.391 11.6267 137.039 11.3387 136.772 10.976C136.505 10.6133 136.372 10.2027 136.372 9.744C136.372 9.008 136.671 8.42133 137.268 7.984C137.865 7.54667 138.644 7.25867 139.604 7.12L141.988 6.784V6.32C141.988 5.808 141.839 5.408 141.54 5.12C141.252 4.832 140.777 4.688 140.116 4.688C139.647 4.688 139.263 4.784 138.964 4.976C138.665 5.168 138.457 5.41333 138.34 5.712C138.276 5.872 138.164 5.952 138.004 5.952H137.284C137.167 5.952 137.076 5.92 137.012 5.856C136.959 5.78133 136.932 5.696 136.932 5.6C136.932 5.44 136.991 5.24267 137.108 5.008C137.236 4.77333 137.428 4.544 137.684 4.32C137.94 4.096 138.265 3.90933 138.66 3.76C139.065 3.6 139.556 3.52 140.132 3.52C140.772 3.52 141.311 3.60533 141.748 3.776C142.185 3.936 142.527 4.15467 142.772 4.432C143.028 4.70933 143.209 5.024 143.316 5.376C143.433 5.728 143.492 6.08533 143.492 6.448V11.632C143.492 11.7387 143.455 11.8293 143.38 11.904C143.316 11.968 143.231 12 143.124 12H142.388C142.271 12 142.18 11.968 142.116 11.904C142.052 11.8293 142.02 11.7387 142.02 11.632V10.944C141.881 11.136 141.695 11.328 141.46 11.52C141.225 11.7013 140.932 11.856 140.58 11.984C140.228 12.1013 139.796 12.16 139.284 12.16ZM139.62 10.96C140.057 10.96 140.457 10.8693 140.82 10.688C141.183 10.496 141.465 10.2027 141.668 9.808C141.881 9.41333 141.988 8.91733 141.988 8.32V7.872L140.132 8.144C139.375 8.25067 138.804 8.432 138.42 8.688C138.036 8.93333 137.844 9.248 137.844 9.632C137.844 9.93067 137.929 10.1813 138.1 10.384C138.281 10.576 138.505 10.72 138.772 10.816C139.049 10.912 139.332 10.96 139.62 10.96ZM149.65 12C149.565 12 149.49 11.968 149.426 11.904C149.362 11.84 149.33 11.7653 149.33 11.68C149.33 11.6267 149.335 11.568 149.346 11.504L153.314 1.152C153.357 1.04533 153.415 0.96 153.49 0.896C153.565 0.831999 153.677 0.799999 153.826 0.799999H154.914C155.063 0.799999 155.175 0.831999 155.25 0.896C155.325 0.96 155.383 1.04533 155.426 1.152L159.378 11.504C159.399 11.568 159.41 11.6267 159.41 11.68C159.41 11.7653 159.378 11.84 159.314 11.904C159.25 11.968 159.175 12 159.09 12H158.274C158.146 12 158.05 11.968 157.986 11.904C157.933 11.84 157.895 11.7813 157.874 11.728L156.994 9.456H151.746L150.866 11.728C150.855 11.7813 150.818 11.84 150.754 11.904C150.69 11.968 150.594 12 150.466 12H149.65ZM152.21 8.08H156.53L154.37 2.4L152.21 8.08ZM161.409 12C161.302 12 161.211 11.968 161.137 11.904C161.073 11.8293 161.041 11.7387 161.041 11.632V10.48C161.041 10.3733 161.073 10.288 161.137 10.224C161.211 10.1493 161.302 10.112 161.409 10.112H162.561C162.667 10.112 162.758 10.1493 162.833 10.224C162.907 10.288 162.945 10.3733 162.945 10.48V11.632C162.945 11.7387 162.907 11.8293 162.833 11.904C162.758 11.968 162.667 12 162.561 12H161.409ZM0.498253 34C0.391586 34 0.300919 33.968 0.226252 33.904C0.162252 33.8293 0.130252 33.7387 0.130252 33.632V33.12C0.130252 33.024 0.156919 32.9173 0.210252 32.8C0.263586 32.6827 0.370252 32.5547 0.530252 32.416L3.92225 29.024C4.46625 28.5653 4.89292 28.176 5.20225 27.856C5.52225 27.5253 5.74625 27.2107 5.87425 26.912C6.01292 26.6133 6.08225 26.304 6.08225 25.984C6.08225 25.376 5.91159 24.896 5.57025 24.544C5.22892 24.1813 4.72225 24 4.05025 24C3.62359 24 3.25559 24.0907 2.94625 24.272C2.63692 24.4427 2.39692 24.6827 2.22625 24.992C2.05559 25.2907 1.93825 25.632 1.87425 26.016C1.85292 26.1547 1.79425 26.2507 1.69825 26.304C1.61292 26.3573 1.53292 26.384 1.45825 26.384H0.626253C0.530252 26.384 0.450252 26.3573 0.386253 26.304C0.322253 26.24 0.290253 26.1653 0.290253 26.08C0.300919 25.6747 0.386252 25.2693 0.546252 24.864C0.706252 24.448 0.940919 24.0747 1.25025 23.744C1.57025 23.4027 1.95959 23.1307 2.41825 22.928C2.88759 22.7253 3.43159 22.624 4.05025 22.624C4.89292 22.624 5.58092 22.7787 6.11425 23.088C6.65825 23.3867 7.05825 23.7867 7.31425 24.288C7.57025 24.7893 7.69825 25.3387 7.69825 25.936C7.69825 26.4053 7.61825 26.8373 7.45825 27.232C7.29825 27.616 7.06359 27.9947 6.75425 28.368C6.45559 28.7307 6.08225 29.104 5.63425 29.488L2.56225 32.608H7.55425C7.67159 32.608 7.76225 32.64 7.82625 32.704C7.90092 32.768 7.93825 32.8587 7.93825 32.976V33.632C7.93825 33.7387 7.90092 33.8293 7.82625 33.904C7.76225 33.968 7.67159 34 7.55425 34H0.498253ZM10.1289 34C10.0222 34 9.93154 33.968 9.85688 33.904C9.79288 33.8293 9.76088 33.7387 9.76088 33.632V33.12C9.76088 33.024 9.78754 32.9173 9.84088 32.8C9.89421 32.6827 10.0009 32.5547 10.1609 32.416L13.5529 29.024C14.0969 28.5653 14.5235 28.176 14.8329 27.856C15.1529 27.5253 15.3769 27.2107 15.5049 26.912C15.6435 26.6133 15.7129 26.304 15.7129 25.984C15.7129 25.376 15.5422 24.896 15.2009 24.544C14.8595 24.1813 14.3529 24 13.6809 24C13.2542 24 12.8862 24.0907 12.5769 24.272C12.2675 24.4427 12.0275 24.6827 11.8569 24.992C11.6862 25.2907 11.5689 25.632 11.5049 26.016C11.4835 26.1547 11.4249 26.2507 11.3289 26.304C11.2435 26.3573 11.1635 26.384 11.0889 26.384H10.2569C10.1609 26.384 10.0809 26.3573 10.0169 26.304C9.95288 26.24 9.92088 26.1653 9.92088 26.08C9.93154 25.6747 10.0169 25.2693 10.1769 24.864C10.3369 24.448 10.5715 24.0747 10.8809 23.744C11.2009 23.4027 11.5902 23.1307 12.0489 22.928C12.5182 22.7253 13.0622 22.624 13.6809 22.624C14.5235 22.624 15.2115 22.7787 15.7449 23.088C16.2889 23.3867 16.6889 23.7867 16.9449 24.288C17.2009 24.7893 17.3289 25.3387 17.3289 25.936C17.3289 26.4053 17.2489 26.8373 17.0889 27.232C16.9289 27.616 16.6942 27.9947 16.3849 28.368C16.0862 28.7307 15.7129 29.104 15.2649 29.488L12.1929 32.608H17.1849C17.3022 32.608 17.3929 32.64 17.4569 32.704C17.5315 32.768 17.5689 32.8587 17.5689 32.976V33.632C17.5689 33.7387 17.5315 33.8293 17.4569 33.904C17.3929 33.968 17.3022 34 17.1849 34H10.1289ZM26.2734 34.16C25.74 34.16 25.2547 34.0533 24.8174 33.84C24.38 33.6267 24.028 33.3387 23.7614 32.976C23.4947 32.6133 23.3614 32.2027 23.3614 31.744C23.3614 31.008 23.66 30.4213 24.2574 29.984C24.8547 29.5467 25.6334 29.2587 26.5934 29.12L28.9774 28.784V28.32C28.9774 27.808 28.828 27.408 28.5294 27.12C28.2414 26.832 27.7667 26.688 27.1054 26.688C26.636 26.688 26.252 26.784 25.9534 26.976C25.6547 27.168 25.4467 27.4133 25.3294 27.712C25.2654 27.872 25.1534 27.952 24.9934 27.952H24.2734C24.156 27.952 24.0654 27.92 24.0014 27.856C23.948 27.7813 23.9214 27.696 23.9214 27.6C23.9214 27.44 23.98 27.2427 24.0974 27.008C24.2254 26.7733 24.4174 26.544 24.6734 26.32C24.9294 26.096 25.2547 25.9093 25.6494 25.76C26.0547 25.6 26.5454 25.52 27.1214 25.52C27.7614 25.52 28.3 25.6053 28.7374 25.776C29.1747 25.936 29.516 26.1547 29.7614 26.432C30.0174 26.7093 30.1987 27.024 30.3054 27.376C30.4227 27.728 30.4814 28.0853 30.4814 28.448V33.632C30.4814 33.7387 30.444 33.8293 30.3694 33.904C30.3054 33.968 30.22 34 30.1134 34H29.3774C29.26 34 29.1694 33.968 29.1054 33.904C29.0414 33.8293 29.0094 33.7387 29.0094 33.632V32.944C28.8707 33.136 28.684 33.328 28.4494 33.52C28.2147 33.7013 27.9214 33.856 27.5694 33.984C27.2174 34.1013 26.7854 34.16 26.2734 34.16ZM26.6094 32.96C27.0467 32.96 27.4467 32.8693 27.8094 32.688C28.172 32.496 28.4547 32.2027 28.6574 31.808C28.8707 31.4133 28.9774 30.9173 28.9774 30.32V29.872L27.1214 30.144C26.364 30.2507 25.7934 30.432 25.4094 30.688C25.0254 30.9333 24.8334 31.248 24.8334 31.632C24.8334 31.9307 24.9187 32.1813 25.0894 32.384C25.2707 32.576 25.4947 32.72 25.7614 32.816C26.0387 32.912 26.3214 32.96 26.6094 32.96ZM33.3895 34C33.2828 34 33.1922 33.968 33.1175 33.904C33.0535 33.8293 33.0215 33.7387 33.0215 33.632V26.048C33.0215 25.9413 33.0535 25.856 33.1175 25.792C33.1922 25.7173 33.2828 25.68 33.3895 25.68H36.7175C37.7202 25.68 38.4722 25.8827 38.9735 26.288C39.4855 26.6933 39.7415 27.2373 39.7415 27.92C39.7415 28.4 39.6508 28.7627 39.4695 29.008C39.2882 29.2533 39.0322 29.4613 38.7015 29.632C39.1068 29.8027 39.4108 30.08 39.6135 30.464C39.8268 30.8373 39.9335 31.2267 39.9335 31.632C39.9335 32.4 39.6615 32.9867 39.1175 33.392C38.5842 33.7973 37.8268 34 36.8455 34H33.3895ZM34.4935 32.832H36.7175C37.2295 32.832 37.6402 32.736 37.9495 32.544C38.2695 32.3413 38.4295 32.0373 38.4295 31.632C38.4295 31.2053 38.2855 30.896 37.9975 30.704C37.7095 30.5013 37.2828 30.4 36.7175 30.4H34.4935V32.832ZM34.4935 29.216H36.6215C37.1335 29.216 37.5388 29.104 37.8375 28.88C38.1468 28.656 38.3015 28.3413 38.3015 27.936C38.3015 27.52 38.1468 27.2373 37.8375 27.088C37.5388 26.928 37.1335 26.848 36.6215 26.848H34.4935V29.216ZM42.5983 34C42.4916 34 42.4009 33.968 42.3263 33.904C42.2623 33.8293 42.2303 33.7387 42.2303 33.632V26.048C42.2303 25.9413 42.2623 25.856 42.3263 25.792C42.4009 25.7173 42.4916 25.68 42.5983 25.68H47.3823C47.4889 25.68 47.5743 25.7173 47.6383 25.792C47.7129 25.856 47.7503 25.9413 47.7503 26.048V26.592C47.7503 26.6987 47.7129 26.7893 47.6383 26.864C47.5743 26.928 47.4889 26.96 47.3823 26.96H43.7343V33.632C43.7343 33.7387 43.6969 33.8293 43.6223 33.904C43.5583 33.968 43.4729 34 43.3663 34H42.5983ZM49.7293 37.04C49.6226 37.04 49.5319 37.0027 49.4573 36.928C49.3933 36.864 49.3613 36.7787 49.3613 36.672V36.128C49.3613 36.0213 49.3933 35.9307 49.4573 35.856C49.5319 35.792 49.6226 35.76 49.7293 35.76H50.1453C50.3906 35.76 50.5879 35.712 50.7373 35.616C50.8866 35.52 51.0199 35.3547 51.1373 35.12C51.2653 34.896 51.4146 34.5867 51.5853 34.192L55.0573 25.952C55.0893 25.8667 55.1319 25.8027 55.1853 25.76C55.2493 25.7067 55.3399 25.68 55.4573 25.68H56.1773C56.2626 25.68 56.3373 25.712 56.4013 25.776C56.4653 25.84 56.4973 25.9147 56.4973 26C56.4973 26.0427 56.4919 26.0853 56.4813 26.128C56.4706 26.16 56.4493 26.2133 56.4173 26.288L53.3773 33.488C53.2173 33.872 53.0413 34.272 52.8493 34.688C52.6679 35.104 52.4599 35.488 52.2253 35.84C52.0013 36.2027 51.7346 36.4907 51.4253 36.704C51.1159 36.928 50.7533 37.04 50.3373 37.04H49.7293ZM51.9533 33.76L48.7213 26.288C48.6679 26.16 48.6413 26.0693 48.6413 26.016C48.6519 25.92 48.6893 25.84 48.7533 25.776C48.8173 25.712 48.8919 25.68 48.9773 25.68H49.7293C49.8466 25.68 49.9319 25.7067 49.9853 25.76C50.0493 25.8133 50.0973 25.8773 50.1293 25.952L52.7853 32.304L51.9533 33.76ZM61.7109 34.16C60.9535 34.16 60.2975 34.016 59.7429 33.728C59.1989 33.4293 58.7775 33.008 58.4789 32.464C58.1802 31.9093 58.0202 31.248 57.9989 30.48C57.9882 30.32 57.9829 30.1067 57.9829 29.84C57.9829 29.5733 57.9882 29.36 57.9989 29.2C58.0202 28.432 58.1802 27.776 58.4789 27.232C58.7775 26.6773 59.1989 26.256 59.7429 25.968C60.2975 25.6693 60.9535 25.52 61.7109 25.52C62.3295 25.52 62.8575 25.6053 63.2949 25.776C63.7429 25.9467 64.1109 26.1653 64.3989 26.432C64.6869 26.6987 64.9002 26.9867 65.0389 27.296C65.1882 27.6053 65.2682 27.8987 65.2789 28.176C65.2895 28.2827 65.2575 28.368 65.1829 28.432C65.1082 28.496 65.0175 28.528 64.9109 28.528H64.1429C64.0362 28.528 63.9562 28.5067 63.9029 28.464C63.8495 28.4107 63.7962 28.3253 63.7429 28.208C63.5509 27.6853 63.2895 27.3173 62.9589 27.104C62.6282 26.8907 62.2175 26.784 61.7269 26.784C61.0869 26.784 60.5642 26.9813 60.1589 27.376C59.7642 27.7707 59.5509 28.4053 59.5189 29.28C59.5082 29.664 59.5082 30.0373 59.5189 30.4C59.5509 31.2853 59.7642 31.9253 60.1589 32.32C60.5642 32.704 61.0869 32.896 61.7269 32.896C62.2175 32.896 62.6282 32.7893 62.9589 32.576C63.2895 32.3627 63.5509 31.9947 63.7429 31.472C63.7962 31.3547 63.8495 31.2693 63.9029 31.216C63.9562 31.1627 64.0362 31.136 64.1429 31.136H64.9109C65.0175 31.136 65.1082 31.1733 65.1829 31.248C65.2575 31.312 65.2895 31.3973 65.2789 31.504C65.2682 31.728 65.2202 31.9573 65.1349 32.192C65.0495 32.4267 64.9109 32.6667 64.7189 32.912C64.5375 33.1467 64.3082 33.36 64.0309 33.552C63.7535 33.7333 63.4229 33.8827 63.0389 34C62.6549 34.1067 62.2122 34.16 61.7109 34.16ZM69.963 34C69.8563 34 69.7657 33.968 69.691 33.904C69.627 33.8293 69.595 33.7387 69.595 33.632V26.96H66.811C66.7043 26.96 66.6137 26.928 66.539 26.864C66.475 26.7893 66.443 26.6987 66.443 26.592V26.048C66.443 25.9413 66.475 25.856 66.539 25.792C66.6137 25.7173 66.7043 25.68 66.811 25.68H73.851C73.9577 25.68 74.043 25.7173 74.107 25.792C74.1817 25.856 74.219 25.9413 74.219 26.048V26.592C74.219 26.6987 74.1817 26.7893 74.107 26.864C74.043 26.928 73.9577 26.96 73.851 26.96H71.067V33.632C71.067 33.7387 71.035 33.8293 70.971 33.904C70.907 33.968 70.8217 34 70.715 34H69.963ZM78.1665 34.16C77.6332 34.16 77.1478 34.0533 76.7105 33.84C76.2732 33.6267 75.9212 33.3387 75.6545 32.976C75.3878 32.6133 75.2545 32.2027 75.2545 31.744C75.2545 31.008 75.5532 30.4213 76.1505 29.984C76.7478 29.5467 77.5265 29.2587 78.4865 29.12L80.8705 28.784V28.32C80.8705 27.808 80.7212 27.408 80.4225 27.12C80.1345 26.832 79.6598 26.688 78.9985 26.688C78.5292 26.688 78.1452 26.784 77.8465 26.976C77.5478 27.168 77.3398 27.4133 77.2225 27.712C77.1585 27.872 77.0465 27.952 76.8865 27.952H76.1665C76.0492 27.952 75.9585 27.92 75.8945 27.856C75.8412 27.7813 75.8145 27.696 75.8145 27.6C75.8145 27.44 75.8732 27.2427 75.9905 27.008C76.1185 26.7733 76.3105 26.544 76.5665 26.32C76.8225 26.096 77.1478 25.9093 77.5425 25.76C77.9478 25.6 78.4385 25.52 79.0145 25.52C79.6545 25.52 80.1932 25.6053 80.6305 25.776C81.0678 25.936 81.4092 26.1547 81.6545 26.432C81.9105 26.7093 82.0918 27.024 82.1985 27.376C82.3158 27.728 82.3745 28.0853 82.3745 28.448V33.632C82.3745 33.7387 82.3372 33.8293 82.2625 33.904C82.1985 33.968 82.1132 34 82.0065 34H81.2705C81.1532 34 81.0625 33.968 80.9985 33.904C80.9345 33.8293 80.9025 33.7387 80.9025 33.632V32.944C80.7638 33.136 80.5772 33.328 80.3425 33.52C80.1078 33.7013 79.8145 33.856 79.4625 33.984C79.1105 34.1013 78.6785 34.16 78.1665 34.16ZM78.5025 32.96C78.9398 32.96 79.3398 32.8693 79.7025 32.688C80.0652 32.496 80.3478 32.2027 80.5505 31.808C80.7638 31.4133 80.8705 30.9173 80.8705 30.32V29.872L79.0145 30.144C78.2572 30.2507 77.6865 30.432 77.3025 30.688C76.9185 30.9333 76.7265 31.248 76.7265 31.632C76.7265 31.9307 76.8118 32.1813 76.9825 32.384C77.1638 32.576 77.3878 32.72 77.6545 32.816C77.9318 32.912 78.2145 32.96 78.5025 32.96ZM89.0445 34C88.9378 34 88.8472 33.968 88.7725 33.904C88.7085 33.8293 88.6765 33.7387 88.6765 33.632V33.12C88.6765 33.024 88.7032 32.9173 88.7565 32.8C88.8098 32.6827 88.9165 32.5547 89.0765 32.416L92.4685 29.024C93.0125 28.5653 93.4392 28.176 93.7485 27.856C94.0685 27.5253 94.2925 27.2107 94.4205 26.912C94.5592 26.6133 94.6285 26.304 94.6285 25.984C94.6285 25.376 94.4578 24.896 94.1165 24.544C93.7752 24.1813 93.2685 24 92.5965 24C92.1698 24 91.8018 24.0907 91.4925 24.272C91.1832 24.4427 90.9432 24.6827 90.7725 24.992C90.6018 25.2907 90.4845 25.632 90.4205 26.016C90.3992 26.1547 90.3405 26.2507 90.2445 26.304C90.1592 26.3573 90.0792 26.384 90.0045 26.384H89.1725C89.0765 26.384 88.9965 26.3573 88.9325 26.304C88.8685 26.24 88.8365 26.1653 88.8365 26.08C88.8472 25.6747 88.9325 25.2693 89.0925 24.864C89.2525 24.448 89.4872 24.0747 89.7965 23.744C90.1165 23.4027 90.5058 23.1307 90.9645 22.928C91.4338 22.7253 91.9778 22.624 92.5965 22.624C93.4392 22.624 94.1272 22.7787 94.6605 23.088C95.2045 23.3867 95.6045 23.7867 95.8605 24.288C96.1165 24.7893 96.2445 25.3387 96.2445 25.936C96.2445 26.4053 96.1645 26.8373 96.0045 27.232C95.8445 27.616 95.6098 27.9947 95.3005 28.368C95.0018 28.7307 94.6285 29.104 94.1805 29.488L91.1085 32.608H96.1005C96.2178 32.608 96.3085 32.64 96.3725 32.704C96.4472 32.768 96.4845 32.8587 96.4845 32.976V33.632C96.4845 33.7387 96.4472 33.8293 96.3725 33.904C96.3085 33.968 96.2178 34 96.1005 34H89.0445ZM102.595 34.16C101.859 34.16 101.235 34.048 100.723 33.824C100.222 33.5893 99.8111 33.2693 99.4911 32.864C99.1711 32.4587 98.9365 31.9947 98.7871 31.472C98.6485 30.9493 98.5685 30.3947 98.5471 29.808C98.5365 29.52 98.5258 29.216 98.5151 28.896C98.5151 28.576 98.5151 28.2507 98.5151 27.92C98.5258 27.5893 98.5365 27.2747 98.5471 26.976C98.5578 26.3893 98.6378 25.8347 98.7871 25.312C98.9471 24.7893 99.1871 24.3307 99.5071 23.936C99.8271 23.5307 100.238 23.216 100.739 22.992C101.251 22.7573 101.87 22.64 102.595 22.64C103.331 22.64 103.95 22.7573 104.451 22.992C104.963 23.216 105.379 23.5307 105.699 23.936C106.019 24.3307 106.254 24.7893 106.403 25.312C106.563 25.8347 106.648 26.3893 106.659 26.976C106.67 27.2747 106.675 27.5893 106.675 27.92C106.686 28.2507 106.686 28.576 106.675 28.896C106.675 29.216 106.67 29.52 106.659 29.808C106.648 30.3947 106.563 30.9493 106.403 31.472C106.254 31.9947 106.019 32.4587 105.699 32.864C105.39 33.2693 104.979 33.5893 104.467 33.824C103.966 34.048 103.342 34.16 102.595 34.16ZM102.595 32.784C103.427 32.784 104.04 32.512 104.435 31.968C104.84 31.424 105.048 30.6773 105.059 29.728C105.08 29.4187 105.091 29.12 105.091 28.832C105.091 28.5333 105.091 28.24 105.091 27.952C105.091 27.6533 105.08 27.36 105.059 27.072C105.048 26.144 104.84 25.4027 104.435 24.848C104.04 24.2827 103.427 24 102.595 24C101.774 24 101.16 24.2827 100.755 24.848C100.36 25.4027 100.152 26.144 100.131 27.072C100.131 27.36 100.126 27.6533 100.115 27.952C100.115 28.24 100.115 28.5333 100.115 28.832C100.126 29.12 100.131 29.4187 100.131 29.728C100.152 30.6773 100.366 31.424 100.771 31.968C101.176 32.512 101.784 32.784 102.595 32.784ZM109.071 34C108.965 34 108.874 33.968 108.799 33.904C108.735 33.8293 108.703 33.7387 108.703 33.632V33.12C108.703 33.024 108.73 32.9173 108.783 32.8C108.837 32.6827 108.943 32.5547 109.103 32.416L112.495 29.024C113.039 28.5653 113.466 28.176 113.775 27.856C114.095 27.5253 114.319 27.2107 114.447 26.912C114.586 26.6133 114.655 26.304 114.655 25.984C114.655 25.376 114.485 24.896 114.143 24.544C113.802 24.1813 113.295 24 112.623 24C112.197 24 111.829 24.0907 111.519 24.272C111.21 24.4427 110.97 24.6827 110.799 24.992C110.629 25.2907 110.511 25.632 110.447 26.016C110.426 26.1547 110.367 26.2507 110.271 26.304C110.186 26.3573 110.106 26.384 110.031 26.384H109.199C109.103 26.384 109.023 26.3573 108.959 26.304C108.895 26.24 108.863 26.1653 108.863 26.08C108.874 25.6747 108.959 25.2693 109.119 24.864C109.279 24.448 109.514 24.0747 109.823 23.744C110.143 23.4027 110.533 23.1307 110.991 22.928C111.461 22.7253 112.005 22.624 112.623 22.624C113.466 22.624 114.154 22.7787 114.687 23.088C115.231 23.3867 115.631 23.7867 115.887 24.288C116.143 24.7893 116.271 25.3387 116.271 25.936C116.271 26.4053 116.191 26.8373 116.031 27.232C115.871 27.616 115.637 27.9947 115.327 28.368C115.029 28.7307 114.655 29.104 114.207 29.488L111.135 32.608H116.127C116.245 32.608 116.335 32.64 116.399 32.704C116.474 32.768 116.511 32.8587 116.511 32.976V33.632C116.511 33.7387 116.474 33.8293 116.399 33.904C116.335 33.968 116.245 34 116.127 34H109.071ZM121.966 34C121.859 34 121.769 33.968 121.694 33.904C121.63 33.8293 121.598 33.7387 121.598 33.632V24.672L118.942 26.72C118.857 26.784 118.766 26.8107 118.67 26.8C118.574 26.7893 118.494 26.7413 118.43 26.656L118.014 26.128C117.95 26.032 117.923 25.936 117.934 25.84C117.955 25.744 118.009 25.664 118.094 25.6L121.582 22.912C121.657 22.8587 121.726 22.8267 121.79 22.816C121.854 22.8053 121.923 22.8 121.998 22.8H122.814C122.921 22.8 123.006 22.8373 123.07 22.912C123.145 22.976 123.182 23.0613 123.182 23.168V33.632C123.182 33.7387 123.145 33.8293 123.07 33.904C123.006 33.968 122.921 34 122.814 34H121.966ZM130.348 34C130.241 34 130.15 33.968 130.076 33.904C130.012 33.8293 129.98 33.7387 129.98 33.632V26.048C129.98 25.9413 130.012 25.856 130.076 25.792C130.15 25.7173 130.241 25.68 130.348 25.68H135.132C135.238 25.68 135.324 25.7173 135.388 25.792C135.462 25.856 135.5 25.9413 135.5 26.048V26.592C135.5 26.6987 135.462 26.7893 135.388 26.864C135.324 26.928 135.238 26.96 135.132 26.96H131.484V33.632C131.484 33.7387 131.446 33.8293 131.372 33.904C131.308 33.968 131.222 34 131.116 34H130.348ZM140.503 34.16C139.692 34.16 139.015 34.0053 138.471 33.696C137.927 33.3867 137.511 32.96 137.223 32.416C136.935 31.8613 136.775 31.232 136.743 30.528C136.732 30.3467 136.727 30.1173 136.727 29.84C136.727 29.552 136.732 29.3227 136.743 29.152C136.775 28.4373 136.935 27.808 137.223 27.264C137.521 26.72 137.943 26.2933 138.487 25.984C139.031 25.6747 139.703 25.52 140.503 25.52C141.303 25.52 141.975 25.6747 142.519 25.984C143.063 26.2933 143.479 26.72 143.767 27.264C144.065 27.808 144.231 28.4373 144.263 29.152C144.273 29.3227 144.279 29.552 144.279 29.84C144.279 30.1173 144.273 30.3467 144.263 30.528C144.231 31.232 144.071 31.8613 143.783 32.416C143.495 32.96 143.079 33.3867 142.535 33.696C141.991 34.0053 141.313 34.16 140.503 34.16ZM140.503 32.928C141.164 32.928 141.692 32.72 142.087 32.304C142.481 31.8773 142.695 31.2587 142.727 30.448C142.737 30.288 142.743 30.0853 142.743 29.84C142.743 29.5947 142.737 29.392 142.727 29.232C142.695 28.4213 142.481 27.808 142.087 27.392C141.692 26.9653 141.164 26.752 140.503 26.752C139.841 26.752 139.308 26.9653 138.903 27.392C138.508 27.808 138.3 28.4213 138.279 29.232C138.268 29.392 138.263 29.5947 138.263 29.84C138.263 30.0853 138.268 30.288 138.279 30.448C138.3 31.2587 138.508 31.8773 138.903 32.304C139.308 32.72 139.841 32.928 140.503 32.928ZM146.042 35.76C145.935 35.76 145.845 35.7227 145.77 35.648C145.706 35.584 145.674 35.4987 145.674 35.392V33.088C145.674 32.9813 145.706 32.896 145.77 32.832C145.845 32.7573 145.935 32.72 146.042 32.72H146.122C146.41 32.7093 146.655 32.5493 146.858 32.24C147.061 31.92 147.215 31.424 147.322 30.752C147.429 30.0693 147.482 29.184 147.482 28.096V26.048C147.482 25.9413 147.514 25.856 147.578 25.792C147.653 25.7173 147.743 25.68 147.85 25.68H152.954C153.071 25.68 153.162 25.7173 153.226 25.792C153.29 25.856 153.322 25.9413 153.322 26.048V32.688H154.074C154.191 32.688 154.282 32.7253 154.346 32.8C154.41 32.864 154.442 32.9493 154.442 33.056V35.392C154.442 35.4987 154.41 35.584 154.346 35.648C154.282 35.7227 154.191 35.76 154.074 35.76H153.322C153.215 35.76 153.125 35.7227 153.05 35.648C152.986 35.584 152.954 35.4987 152.954 35.392V34H147.162V35.392C147.162 35.4987 147.125 35.584 147.05 35.648C146.986 35.7227 146.901 35.76 146.794 35.76H146.042ZM148.026 32.72L151.834 32.688V26.96H148.938V28.272C148.938 29.4027 148.858 30.3307 148.698 31.056C148.538 31.7707 148.314 32.3253 148.026 32.72ZM158.676 34.16C158.143 34.16 157.657 34.0533 157.22 33.84C156.783 33.6267 156.431 33.3387 156.164 32.976C155.897 32.6133 155.764 32.2027 155.764 31.744C155.764 31.008 156.063 30.4213 156.66 29.984C157.257 29.5467 158.036 29.2587 158.996 29.12L161.38 28.784V28.32C161.38 27.808 161.231 27.408 160.932 27.12C160.644 26.832 160.169 26.688 159.508 26.688C159.039 26.688 158.655 26.784 158.356 26.976C158.057 27.168 157.849 27.4133 157.732 27.712C157.668 27.872 157.556 27.952 157.396 27.952H156.676C156.559 27.952 156.468 27.92 156.404 27.856C156.351 27.7813 156.324 27.696 156.324 27.6C156.324 27.44 156.383 27.2427 156.5 27.008C156.628 26.7733 156.82 26.544 157.076 26.32C157.332 26.096 157.657 25.9093 158.052 25.76C158.457 25.6 158.948 25.52 159.524 25.52C160.164 25.52 160.703 25.6053 161.14 25.776C161.577 25.936 161.919 26.1547 162.164 26.432C162.42 26.7093 162.601 27.024 162.708 27.376C162.825 27.728 162.884 28.0853 162.884 28.448V33.632C162.884 33.7387 162.847 33.8293 162.772 33.904C162.708 33.968 162.623 34 162.516 34H161.78C161.663 34 161.572 33.968 161.508 33.904C161.444 33.8293 161.412 33.7387 161.412 33.632V32.944C161.273 33.136 161.087 33.328 160.852 33.52C160.617 33.7013 160.324 33.856 159.972 33.984C159.62 34.1013 159.188 34.16 158.676 34.16ZM159.012 32.96C159.449 32.96 159.849 32.8693 160.212 32.688C160.575 32.496 160.857 32.2027 161.06 31.808C161.273 31.4133 161.38 30.9173 161.38 30.32V29.872L159.524 30.144C158.767 30.2507 158.196 30.432 157.812 30.688C157.428 30.9333 157.236 31.248 157.236 31.632C157.236 31.9307 157.321 32.1813 157.492 32.384C157.673 32.576 157.897 32.72 158.164 32.816C158.441 32.912 158.724 32.96 159.012 32.96Z" fill="#605D74"/>
</svg>
