<svg width="24" height="24" viewBox="0 0 24 24" fill="none" xmlns="http://www.w3.org/2000/svg">
<circle cx="12" cy="12" r="12" fill="#8EDE4D"/>
<path d="M11.0229 19.208C10.8469 19.208 10.7029 19.152 10.5909 19.04C10.4789 18.912 10.4229 18.768 10.4229 18.608V14.216H6.15094C5.97494 14.216 5.82294 14.16 5.69494 14.048C5.58294 13.936 5.52694 13.792 5.52694 13.616V11.864C5.52694 11.688 5.58294 11.544 5.69494 11.432C5.82294 11.304 5.97494 11.24 6.15094 11.24H10.4229V6.992C10.4229 6.816 10.4789 6.672 10.5909 6.56C10.7029 6.448 10.8469 6.392 11.0229 6.392H12.9909C13.1509 6.392 13.2869 6.448 13.3989 6.56C13.5269 6.672 13.5909 6.816 13.5909 6.992V11.24H17.8389C18.0149 11.24 18.1589 11.304 18.2709 11.432C18.3829 11.544 18.4389 11.688 18.4389 11.864V13.616C18.4389 13.792 18.3829 13.936 18.2709 14.048C18.1589 14.16 18.0149 14.216 17.8389 14.216H13.5909V18.608C13.5909 18.768 13.5269 18.912 13.3989 19.04C13.2869 19.152 13.1509 19.208 12.9909 19.208H11.0229Z" fill="#FEFEFF"/>
</svg>
