<svg width="24" height="24" viewBox="0 0 24 24" fill="none" xmlns="http://www.w3.org/2000/svg">
<circle cx="12" cy="12" r="12" fill="#62A9FC"/>
<path d="M5.875 8.9375C5.875 8.35734 6.10547 7.80094 6.5157 7.3907C6.92594 6.98047 7.48234 6.75 8.0625 6.75H15.9375C16.5177 6.75 17.0741 6.98047 17.4843 7.3907C17.8945 7.80094 18.125 8.35734 18.125 8.9375V13.3125C18.125 13.5998 18.0684 13.8842 17.9585 14.1496C17.8486 14.415 17.6874 14.6562 17.4843 14.8593C17.2812 15.0624 17.04 15.2236 16.7746 15.3335C16.5092 15.4434 16.2248 15.5 15.9375 15.5H12.602L9.92188 17.845C9.79786 17.9534 9.64525 18.0238 9.48228 18.0478C9.31932 18.0718 9.15289 18.0483 9.00292 17.9802C8.85294 17.9121 8.72575 17.8022 8.63657 17.6637C8.54738 17.5252 8.49997 17.364 8.5 17.1993V15.5H8.0625C7.48234 15.5 6.92594 15.2695 6.5157 14.8593C6.10547 14.4491 5.875 13.8927 5.875 13.3125V8.9375ZM8.0625 7.625C7.7144 7.625 7.38056 7.76328 7.13442 8.00942C6.88828 8.25556 6.75 8.5894 6.75 8.9375V13.3125C6.75 13.6606 6.88828 13.9944 7.13442 14.2406C7.38056 14.4867 7.7144 14.625 8.0625 14.625H9.375V17.1607L12.273 14.625H15.9375C16.2856 14.625 16.6194 14.4867 16.8656 14.2406C17.1117 13.9944 17.25 13.6606 17.25 13.3125V8.9375C17.25 8.5894 17.1117 8.25556 16.8656 8.00942C16.6194 7.76328 16.2856 7.625 15.9375 7.625H8.0625Z" fill="#FEFEFF"/>
<path d="M8.0625 7.625C7.7144 7.625 7.38056 7.76328 7.13442 8.00942C6.88828 8.25556 6.75 8.5894 6.75 8.9375V13.3125C6.75 13.6606 6.88828 13.9944 7.13442 14.2406C7.38056 14.4867 7.7144 14.625 8.0625 14.625H9.375V17.1607L12.273 14.625H15.9375C16.2856 14.625 16.6194 14.4867 16.8656 14.2406C17.1117 13.9944 17.25 13.6606 17.25 13.3125V8.9375C17.25 8.5894 17.1117 8.25556 16.8656 8.00942C16.6194 7.76328 16.2856 7.625 15.9375 7.625H8.0625Z" fill="#FEFEFF"/>
</svg>
