<svg width="92" height="92" viewBox="0 0 92 92" fill="none" xmlns="http://www.w3.org/2000/svg">
<path d="M46 92C71.4051 92 92 71.4051 92 46C92 20.5949 71.4051 0 46 0C20.5949 0 0 20.5949 0 46C0 71.4051 20.5949 92 46 92Z" fill="#FEE565"/>
<path d="M30.7096 46.387C28.6608 46.387 27 44.7262 27 42.6774V39.7096C27 37.6609 28.6608 36 30.7096 36C32.7584 36 34.4193 37.6609 34.4193 39.7096V42.6774C34.4193 44.7262 32.7584 46.387 30.7096 46.387Z" fill="#685E67"/>
<path d="M61.7096 46.387C59.6608 46.387 58 44.7262 58 42.6774V39.7096C58 37.6609 59.6608 36 61.7096 36C63.7584 36 65.4193 37.6609 65.4193 39.7096V42.6774C65.4193 44.7262 63.7584 46.387 61.7096 46.387Z" fill="#685E67"/>
<path d="M30.8552 68.6453C30.406 68.6453 29.9554 68.483 29.5989 68.1554C28.8453 67.4613 28.796 66.2883 29.4902 65.534C33.255 61.4425 39.3135 59 45.6938 59C52.0771 59 58.1343 61.4432 61.8975 65.5347C62.5916 66.2883 62.5424 67.462 61.7888 68.1554C61.0368 68.8496 59.8615 68.8025 59.1673 68.046C56.0938 64.7044 51.0568 62.7097 45.6937 62.7097C40.332 62.7097 35.295 64.7044 32.22 68.0467C31.8552 68.444 31.3551 68.6453 30.8552 68.6453Z" fill="#685E67"/>
<path d="M52.6774 85.0129C27.2723 85.0129 6.67737 64.418 6.67737 39.0129C6.67737 28.0112 10.5444 17.9156 16.9871 10C6.62382 18.4345 0 31.2869 0 45.6903C0 71.0954 20.5949 91.6902 46 91.6902C60.4036 91.6902 73.2559 85.0662 81.6906 74.7029C73.7748 81.1456 63.6793 85.0129 52.6774 85.0129Z" fill="#FDD62F"/>
</svg>
