<svg width="92" height="92" viewBox="0 0 92 92" fill="none" xmlns="http://www.w3.org/2000/svg">
<g clip-path="url(#clip0_2_3755)">
<path d="M45.9999 91.9998C71.405 91.9998 91.9998 71.405 91.9998 45.9999C91.9998 20.5949 71.405 0 45.9999 0C20.5949 0 0 20.5949 0 45.9999C0 71.405 20.5949 91.9998 45.9999 91.9998Z" fill="#FEE565"/>
<path d="M14.2926 45.9999C14.2926 23.0258 31.1385 3.98574 53.1494 0.552295C50.8204 0.188992 48.431 0 45.9999 0C20.5949 0 0 20.5949 0 45.9999C0 71.4049 20.5949 91.9998 45.9999 91.9998C48.4308 91.9998 50.8217 91.8106 53.1507 91.4473C31.1398 88.0139 14.2926 68.9742 14.2926 45.9999Z" fill="#FDD62F"/>
<path d="M46.2068 68.4356C42.1907 68.4356 38.3392 67.216 35.0683 64.9085C31.8715 62.6532 29.4582 59.5325 28.0892 55.8837C27.8188 55.163 28.1838 54.3595 28.9046 54.0893C29.6249 53.8187 30.4286 54.1837 30.699 54.9047C33.1098 61.3308 39.3419 65.6483 46.2068 65.6483C53.0716 65.6483 59.3037 61.3308 61.7145 54.9047C61.9849 54.1841 62.7884 53.8187 63.5089 54.0893C64.2296 54.3597 64.5947 55.163 64.3243 55.8837C62.9555 59.5325 60.5421 62.6534 57.3452 64.9085C54.0746 67.216 50.2228 68.4356 46.2068 68.4356Z" fill="#685E67"/>
<path d="M36.4423 40.8116C35.6726 40.8116 35.0486 40.1876 35.0486 39.4178C35.0486 36.3131 32.5227 33.7875 29.418 33.7875C26.3133 33.7875 23.7875 36.3133 23.7875 39.4178C23.7875 40.1876 23.1635 40.8116 22.3937 40.8116C21.624 40.8116 21 40.1876 21 39.4178C21 34.7761 24.7763 31 29.418 31C34.0598 31 37.8361 34.7763 37.8361 39.4178C37.8361 40.1876 37.2122 40.8116 36.4423 40.8116Z" fill="#685E67"/>
<path d="M69.4423 40.8116C68.6726 40.8116 68.0486 40.1876 68.0486 39.4178C68.0486 36.3131 65.5227 33.7875 62.418 33.7875C59.3133 33.7875 56.7875 36.3133 56.7875 39.4178C56.7875 40.1876 56.1635 40.8116 55.3937 40.8116C54.624 40.8116 54 40.1876 54 39.4178C54 34.7761 57.7763 31 62.418 31C67.0598 31 70.8361 34.7763 70.8361 39.4178C70.8361 40.1876 70.212 40.8116 69.4423 40.8116Z" fill="#685E67"/>
<path d="M8.39414 53.7293C8.24306 53.7293 8.08938 53.7046 7.93848 53.6524C7.21095 53.4008 6.82534 52.6071 7.07696 51.8796L9.1319 45.9385C9.38352 45.2109 10.1772 44.8253 10.9047 45.077C11.6323 45.3286 12.0179 46.1223 11.7663 46.8498L9.71132 52.7909C9.51174 53.3673 8.9719 53.7293 8.39414 53.7293Z" fill="#F37E7F"/>
<path d="M14.3941 53.7293C14.2431 53.7293 14.0894 53.7046 13.9385 53.6524C13.2109 53.4008 12.8253 52.6071 13.077 51.8796L15.1319 45.9385C15.3835 45.2109 16.177 44.8253 16.9047 45.077C17.6323 45.3286 18.0179 46.1223 17.7663 46.8498L15.7113 52.7909C15.5117 53.3673 14.9717 53.7293 14.3941 53.7293Z" fill="#F37E7F"/>
<path d="M75.3941 53.7293C75.2431 53.7293 75.0894 53.7046 74.9385 53.6524C74.2109 53.4008 73.8253 52.6071 74.077 51.8796L76.1319 45.9385C76.3835 45.2109 77.1772 44.8253 77.9048 45.077C78.6323 45.3286 79.0179 46.1223 78.7663 46.8498L76.7113 52.7909C76.5117 53.3673 75.9717 53.7293 75.3941 53.7293Z" fill="#F37E7F"/>
<path d="M82.3941 53.7293C82.2431 53.7293 82.0894 53.7046 81.9385 53.6524C81.2109 53.4008 80.8253 52.6071 81.077 51.8796L83.1319 45.9385C83.3835 45.2109 84.1774 44.8253 84.9047 45.077C85.6323 45.3286 86.0179 46.1223 85.7663 46.8498L83.7113 52.7909C83.5117 53.3673 82.9717 53.7293 82.3941 53.7293Z" fill="#F37E7F"/>
</g>
<defs>
<clipPath id="clip0_2_3755">
<rect width="92" height="92" fill="white"/>
</clipPath>
</defs>
</svg>
